<svg width="88" height="86" xmlns="http://www.w3.org/2000/svg" xmlns:xlink="http://www.w3.org/1999/xlink" xml:space="preserve" overflow="hidden"><defs><clipPath id="clip0"><rect x="716" y="380" width="88" height="86"/></clipPath><clipPath id="clip1"><rect x="717" y="380" width="86" height="86"/></clipPath><clipPath id="clip2"><rect x="717" y="380" width="86" height="86"/></clipPath><clipPath id="clip3"><rect x="717" y="380" width="86" height="86"/></clipPath></defs><g clip-path="url(#clip0)" transform="translate(-716 -380)"><g clip-path="url(#clip1)"><g clip-path="url(#clip2)"><g clip-path="url(#clip3)"><path d="M746.562 454.354 744.233 454.354 741.815 451.935 740.56 453.19 742.979 455.608 742.979 457.938C742.979 458.475 743.338 458.833 743.875 458.833 744.412 458.833 744.771 458.475 744.771 457.938L744.771 456.146 746.562 456.146C747.1 456.146 747.458 455.788 747.458 455.25 747.458 454.712 747.1 454.354 746.562 454.354Z" fill="#000000" fill-rule="nonzero" fill-opacity="1"/><path d="M724.256 435.721C722.017 439.215 723.002 443.962 726.496 446.202L735.633 452.025C736.529 452.652 737.783 452.831 738.858 452.473 740.829 451.846 741.904 449.696 741.277 447.635L737.873 437.333C737.335 435.721 736.26 434.377 734.827 433.392 733.035 432.227 731.065 431.958 729.183 432.317 729.273 427.837 730.706 422.283 735.902 420.223 743.427 417.267 743.785 425.777 749.34 437.244 754.894 448.71 775.498 445.217 779.798 435.452 784.456 424.881 778.454 418.61 776.215 415.744 773.975 412.877 764.838 407.233 762.777 404.098 760.717 400.962 764.658 395.319 770.84 404.994 777.021 414.669 782.037 418.342 786.875 416.729 791.713 415.117 792.698 409.562 790.458 403.292 788.219 397.021 779.798 392.81 782.396 390.75 783.829 389.585 791.085 389.854 794.938 390.75 795.923 391.019 796.46 389.585 795.565 389.138 790.638 386.271 779.798 383.583 777.021 389.048 773.438 395.946 781.052 397.29 784.188 405.173 787.323 413.056 781.142 407.592 778.812 404.277 776.483 400.962 772.183 392.99 766.271 390.84 760.358 388.69 753.192 395.319 752.744 402.933 752.296 410.548 759.373 413.325 763.583 416.729 767.794 420.133 773.527 428.017 766.271 431.958 759.015 435.9 754.715 423.717 752.833 419.417 750.952 415.117 746.562 411.981 741.188 411.354 735.812 410.727 729.81 413.325 725.958 420.312 723.36 424.971 723.987 430.704 725.062 434.735 724.794 435.004 724.525 435.362 724.256 435.721Z" fill="#000000" fill-rule="nonzero" fill-opacity="1"/></g></g></g></g></svg>