<svg width="4322" height="2155" xmlns="http://www.w3.org/2000/svg" xmlns:xlink="http://www.w3.org/1999/xlink" xml:space="preserve" overflow="hidden"><defs><clipPath id="clip0"><rect x="27" y="100" width="4322" height="2155"/></clipPath><clipPath id="clip1"><rect x="2863" y="418" width="302" height="303"/></clipPath><clipPath id="clip2"><rect x="2863" y="418" width="302" height="303"/></clipPath><clipPath id="clip3"><rect x="2863" y="418" width="302" height="303"/></clipPath><clipPath id="clip4"><rect x="2915" y="456" width="209" height="215"/></clipPath><clipPath id="clip5"><rect x="2915" y="456" width="209" height="215"/></clipPath><clipPath id="clip6"><rect x="2850" y="438" width="304" height="305"/></clipPath><clipPath id="clip7"><rect x="2099" y="512" width="213" height="218"/></clipPath><clipPath id="clip8"><rect x="2099" y="512" width="213" height="218"/></clipPath><clipPath id="clip9"><rect x="2009" y="426" width="303" height="304"/></clipPath><clipPath id="clip10"><rect x="2007" y="424" width="159" height="152"/></clipPath><clipPath id="clip11"><rect x="2007" y="424" width="159" height="152"/></clipPath><clipPath id="clip12"><rect x="2007" y="424" width="305" height="305"/></clipPath><clipPath id="clip13"><rect x="1985" y="1204" width="303" height="302"/></clipPath><clipPath id="clip14"><rect x="1985" y="1204" width="303" height="302"/></clipPath><clipPath id="clip15"><rect x="1985" y="1204" width="303" height="302"/></clipPath><clipPath id="clip16"><rect x="1156" y="601" width="302" height="304"/></clipPath><clipPath id="clip17"><rect x="1156" y="601" width="302" height="304"/></clipPath><clipPath id="clip18"><rect x="1156" y="601" width="302" height="304"/></clipPath><clipPath id="clip19"><rect x="390" y="636" width="234" height="236"/></clipPath><clipPath id="clip20"><rect x="390" y="636" width="234" height="236"/></clipPath><clipPath id="clip21"><rect x="390" y="636" width="234" height="236"/></clipPath><clipPath id="clip22"><rect x="3763" y="429" width="301" height="301"/></clipPath><clipPath id="clip23"><rect x="3763" y="429" width="301" height="301"/></clipPath><clipPath id="clip24"><rect x="3763" y="429" width="301" height="301"/></clipPath></defs><g clip-path="url(#clip0)" transform="translate(-27 -100)"><path d="M856 384 1458.64 384 1608 1167 1458.64 1950 856 1950 1005.36 1167Z" fill="#892B64" fill-rule="evenodd" fill-opacity="1"/><path d="M29.9999 384 803.02 384 948 1167 803.02 1950 29.9999 1950 174.98 1167Z" fill="#B7094C" fill-rule="evenodd" fill-opacity="1"/><path d="M1678 383 2474.71 383 2596 767 2474.71 1151 1678 1151 1799.29 767Z" fill="#5C4D7D" fill-rule="evenodd" fill-opacity="1"/><path d="M1671 1182 2467.71 1182 2589 1566 2467.71 1950 1671 1950 1792.29 1566Z" fill="#2E6F95" fill-rule="evenodd" fill-opacity="1"/><path d="M2555 377 3350.71 377 3472 761 3350.71 1145 2555 1145 2676.29 761Z" fill="#1680A1" fill-rule="evenodd" fill-opacity="1"/><path d="M1003 384 1616.87 384 1732 773.5 1616.87 1163 1003 1163 1118.13 773.5Z" fill="#892B64" fill-rule="evenodd" fill-opacity="1"/><path d="M1003 1163 1616.87 1163 1732 1556.5 1616.87 1950 1003 1950 1118.13 1556.5Z" fill="#892B64" fill-rule="evenodd" fill-opacity="1"/><text fill="#7F7F7F" fill-opacity="1" font-family="Metropolis,Metropolis_MSFontService,sans-serif" font-style="normal" font-variant="normal" font-weight="700" font-stretch="normal" font-size="83" text-anchor="start" direction="ltr" writing-mode="lr-tb" unicode-bidi="normal" text-decoration="none" transform="matrix(1 0 0 1 2368.24 210)">MODEL<tspan fill="#7F7F7F" fill-opacity="1" font-family="Metropolis,Metropolis_MSFontService,sans-serif" font-style="normal" font-variant="normal" font-weight="700" font-stretch="normal" font-size="83" text-anchor="start" direction="ltr" writing-mode="lr-tb" unicode-bidi="normal" text-decoration="none" x="-500.979" y="1971">CLUSTER</tspan></text><path d="M1671 354C1671 322.796 1700.47 297.5 1736.83 297.5L2464.67 297.5C2501.03 297.5 2530.5 272.204 2530.5 241 2530.5 272.204 2559.97 297.5 2596.33 297.5L3324.17 297.5C3360.53 297.5 3390 322.796 3390 354" stroke="#7F7F7F" stroke-width="13.75" stroke-linecap="butt" stroke-linejoin="miter" stroke-miterlimit="8" stroke-opacity="1" fill="none" fill-rule="evenodd"/><path d="M114 878C82.5193 878 56.9994 848.267 56.9994 811.589L57.0004 505.411C57.0004 468.733 31.4804 439 1.04796e-14 439 31.4804 439 57.0004 409.267 57.0004 372.589L57.0004 66.4108C57.0004 29.7331 82.5203 0 114.001 0" stroke="#7F7F7F" stroke-width="13.75" stroke-linecap="butt" stroke-linejoin="miter" stroke-miterlimit="8" stroke-opacity="1" fill="none" fill-rule="evenodd" transform="matrix(-1.83697e-16 -1 -1 1.83697e-16 2515 2086)"/><text fill="#FFFFFF" fill-opacity="1" font-family="Metropolis Light,Metropolis Light_MSFontService,sans-serif" font-style="normal" font-variant="normal" font-weight="300" font-stretch="normal" font-size="64" text-anchor="start" direction="ltr" writing-mode="lr-tb" unicode-bidi="normal" text-decoration="none" transform="matrix(1 0 0 1 2746.76 899)">Train <tspan fill="#FFFFFF" fill-opacity="1" font-family="Metropolis Light,Metropolis Light_MSFontService,sans-serif" font-style="normal" font-variant="normal" font-weight="300" font-stretch="normal" font-size="64" text-anchor="start" direction="ltr" writing-mode="lr-tb" unicode-bidi="normal" text-decoration="none" x="190.209" y="0">supervised </tspan><tspan fill="#FFFFFF" fill-opacity="1" font-family="Metropolis Light,Metropolis Light_MSFontService,sans-serif" font-style="normal" font-variant="normal" font-weight="300" font-stretch="normal" font-size="64" text-anchor="start" direction="ltr" writing-mode="lr-tb" unicode-bidi="normal" text-decoration="none" x="-1.71875" y="77">machine </tspan><tspan fill="#FFFFFF" fill-opacity="1" font-family="Metropolis Light,Metropolis Light_MSFontService,sans-serif" font-style="normal" font-variant="normal" font-weight="300" font-stretch="normal" font-size="64" text-anchor="start" direction="ltr" writing-mode="lr-tb" unicode-bidi="normal" text-decoration="none" x="293.334" y="77">learning </tspan><tspan fill="#FFFFFF" fill-opacity="1" font-family="Metropolis Light,Metropolis Light_MSFontService,sans-serif" font-style="normal" font-variant="normal" font-weight="300" font-stretch="normal" font-size="64" text-anchor="start" direction="ltr" writing-mode="lr-tb" unicode-bidi="normal" text-decoration="none" x="156.979" y="154">models</tspan></text><g clip-path="url(#clip1)"><g clip-path="url(#clip2)"><g clip-path="url(#clip3)"><path d="M257.999 251.667 50.4686 251.667 50.4686 44.0416 44.1769 44.0416 44.1769 257.958 257.999 257.958 257.999 251.667Z" fill="#FFFFFF" fill-rule="nonzero" fill-opacity="1" transform="matrix(1 0 0 1 2863 418)"/><path d="M160.57 195.042 166.861 195.042 166.861 210.248 160.57 210.248Z" fill="#FFFFFF" fill-rule="nonzero" fill-opacity="1" transform="matrix(1 0 0 1 2863 418)"/><path d="M160.57 166.729 166.861 166.729 166.861 181.936 160.57 181.936Z" fill="#FFFFFF" fill-rule="nonzero" fill-opacity="1" transform="matrix(1 0 0 1 2863 418)"/><path d="M160.57 138.417 166.861 138.417 166.861 153.624 160.57 153.624Z" fill="#FFFFFF" fill-rule="nonzero" fill-opacity="1" transform="matrix(1 0 0 1 2863 418)"/><path d="M160.57 110.104 166.861 110.104 166.861 125.311 160.57 125.311Z" fill="#FFFFFF" fill-rule="nonzero" fill-opacity="1" transform="matrix(1 0 0 1 2863 418)"/><path d="M201.991 139.408C195.859 80.4767 179.973 72.3541 163.715 72.3541 147.458 72.3541 131.571 80.4767 125.446 139.408 120.076 190.977 102.715 214.889 69.1359 216.937L69.5197 223.228C106.773 220.954 125.95 195.306 131.697 140.068 138.102 78.6458 154.775 78.6458 163.715 78.6458 172.656 78.6458 189.344 78.6458 195.73 140.059 201.468 195.177 220.639 220.815 257.892 223.194L258.292 216.902C224.71 214.772 207.345 190.867 201.991 139.408Z" fill="#FFFFFF" fill-rule="nonzero" fill-opacity="1" transform="matrix(1 0 0 1 2863 418)"/></g></g></g><rect x="2916" y="469" width="237" height="187" fill="#1780A1" fill-opacity="1"/><g clip-path="url(#clip4)"><g clip-path="url(#clip5)"><g clip-path="url(#clip6)"><path d="M63.1231 44.1862 44.1862 44.1862 44.1862 258.805 258.805 258.805 258.805 239.868 63.1231 239.868 63.1231 44.1862Z" fill="#FFFFFF" fill-rule="nonzero" fill-opacity="1" transform="matrix(1 0 0 1.00176 2850.08 438.949)"/><path d="M256.453 197.818C245.448 198.21 216.083 199.257 210.058 139.594 205.15 90.7868 192.557 69.9625 168.002 69.9625 143.447 69.9625 130.87 90.7868 125.931 139.594 119.934 199.257 90.5816 198.175 79.5509 197.818 78.6324 197.784 77.8434 197.758 77.1995 197.758L77.1995 216.695C77.6572 216.695 78.2221 216.717 78.8786 216.743 79.8696 216.777 80.848 216.793 81.8201 216.793 118.558 216.793 139.739 191.478 144.785 141.497 150.094 88.8994 163.091 88.8994 168.002 88.8994 172.913 88.8994 185.91 88.8994 191.219 141.497 196.401 192.8 218.538 217.999 257.129 216.743 257.782 216.717 258.344 216.695 258.805 216.695L258.805 197.758C258.173 197.758 257.372 197.784 256.453 197.818Z" fill="#FFFFFF" fill-rule="nonzero" fill-opacity="1" transform="matrix(1 0 0 1.00176 2850.08 438.949)"/><path d="M164.846 136.242 171.158 136.242 171.158 152.022 164.846 152.022Z" fill="#FFFFFF" fill-rule="nonzero" fill-opacity="1" transform="matrix(1 0 0 1.00176 2850.08 438.949)"/><path d="M164.846 164.647 171.158 164.647 171.158 180.428 164.846 180.428Z" fill="#FFFFFF" fill-rule="nonzero" fill-opacity="1" transform="matrix(1 0 0 1.00176 2850.08 438.949)"/><path d="M164.846 108.89 171.158 108.89 171.158 124.671 164.846 124.671Z" fill="#FFFFFF" fill-rule="nonzero" fill-opacity="1" transform="matrix(1 0 0 1.00176 2850.08 438.949)"/><path d="M164.846 193.052 171.158 193.052 171.158 208.306 164.846 208.306Z" fill="#FFFFFF" fill-rule="nonzero" fill-opacity="1" transform="matrix(1 0 0 1.00176 2850.08 438.949)"/></g></g></g><text fill="#FFFFFF" fill-opacity="1" font-family="Metropolis,Metropolis_MSFontService,sans-serif" font-style="normal" font-variant="normal" font-weight="700" font-stretch="normal" font-size="83" text-anchor="start" direction="ltr" writing-mode="lr-tb" unicode-bidi="normal" text-decoration="none" transform="matrix(1 0 0 1 2861.35 806)">MODEL<tspan fill="#FFFFFF" fill-opacity="1" font-family="Metropolis Light,Metropolis Light_MSFontService,sans-serif" font-style="normal" font-variant="normal" font-weight="300" font-stretch="normal" font-size="64" text-anchor="start" direction="ltr" writing-mode="lr-tb" unicode-bidi="normal" text-decoration="none" x="-947.433" y="101">Compute </tspan><tspan fill="#FFFFFF" fill-opacity="1" font-family="Metropolis Light,Metropolis Light_MSFontService,sans-serif" font-style="normal" font-variant="normal" font-weight="300" font-stretch="normal" font-size="64" text-anchor="start" direction="ltr" writing-mode="lr-tb" unicode-bidi="normal" text-decoration="none" x="-619.724" y="101">kmer</tspan><tspan fill="#FFFFFF" fill-opacity="1" font-family="Metropolis Light,Metropolis Light_MSFontService,sans-serif" font-style="normal" font-variant="normal" font-weight="300" font-stretch="normal" font-size="64" text-anchor="start" direction="ltr" writing-mode="lr-tb" unicode-bidi="normal" text-decoration="none" x="-878.683" y="178">probability </tspan><tspan fill="#FFFFFF" fill-opacity="1" font-family="Metropolis Light,Metropolis Light_MSFontService,sans-serif" font-style="normal" font-variant="normal" font-weight="300" font-stretch="normal" font-size="64" text-anchor="start" direction="ltr" writing-mode="lr-tb" unicode-bidi="normal" text-decoration="none" x="-810.804" y="255">scores</tspan></text><g clip-path="url(#clip7)"><g clip-path="url(#clip8)"><g clip-path="url(#clip9)"><path d="M135.075 31.4127 47.1191 31.4127C40.1797 31.4127 34.554 37.0384 34.554 43.9778L34.554 131.933C34.554 138.873 40.1797 144.499 47.1191 144.499L135.075 144.499C142.014 144.499 147.64 138.873 147.64 131.933L147.64 43.9778C147.64 37.0384 142.014 31.4127 135.075 31.4127ZM69.108 128.792C63.9032 128.792 59.6842 124.573 59.6842 119.368 59.6842 114.164 63.9032 109.945 69.108 109.945 74.3128 109.945 78.5318 114.164 78.5318 119.368 78.5318 124.573 74.3128 128.792 69.108 128.792ZM69.108 97.3795C63.9032 97.3795 59.6842 93.1604 59.6842 87.9556 59.6842 82.7509 63.9032 78.5318 69.108 78.5318 74.3128 78.5318 78.5318 82.7509 78.5318 87.9556 78.5318 93.1604 74.3128 97.3795 69.108 97.3795ZM69.108 65.9667C63.9032 65.9667 59.6842 61.7477 59.6842 56.5429 59.6842 51.3381 63.9032 47.1191 69.108 47.1191 74.3128 47.1191 78.5318 51.3381 78.5318 56.5429 78.5318 61.7477 74.3128 65.9667 69.108 65.9667ZM113.086 128.792C107.881 128.792 103.662 124.573 103.662 119.368 103.662 114.164 107.881 109.945 113.086 109.945 118.291 109.945 122.51 114.164 122.51 119.368 122.51 124.573 118.291 128.792 113.086 128.792ZM113.086 97.3795C107.881 97.3795 103.662 93.1604 103.662 87.9556 103.662 82.7509 107.881 78.5318 113.086 78.5318 118.291 78.5318 122.51 82.7509 122.51 87.9556 122.51 93.1604 118.291 97.3795 113.086 97.3795ZM113.086 65.9667C107.881 65.9667 103.662 61.7477 103.662 56.5429 103.662 51.3381 107.881 47.1191 113.086 47.1191 118.291 47.1191 122.51 51.3381 122.51 56.5429 122.51 61.7477 118.291 65.9667 113.086 65.9667Z" fill="#FFFFFF" fill-rule="nonzero" fill-opacity="1" transform="matrix(1 0 0 1.00172 2009.44 426.919)"/><path d="M262.705 185.869 200.507 123.672C195.603 118.762 187.647 118.758 182.738 123.662 182.734 123.665 182.731 123.668 182.728 123.672L120.531 185.869C115.621 190.773 115.616 198.729 120.521 203.639 120.524 203.642 120.527 203.645 120.531 203.649L182.728 265.846C187.632 270.756 195.588 270.76 200.498 265.856 200.501 265.853 200.504 265.849 200.507 265.846L262.705 203.649C267.614 198.745 267.619 190.789 262.714 185.879 262.711 185.876 262.708 185.873 262.705 185.869ZM191.618 150.341C195.295 146.659 201.262 146.655 204.945 150.333 208.627 154.011 208.631 159.978 204.953 163.66 201.275 167.343 195.308 167.347 191.626 163.668 191.623 163.666 191.62 163.663 191.618 163.66 187.943 159.981 187.943 154.021 191.618 150.341ZM160.519 208.078C156.841 211.76 150.874 211.764 147.192 208.086 143.509 204.408 143.506 198.441 147.183 194.759 150.862 191.076 156.828 191.073 160.511 194.751 160.513 194.753 160.516 194.756 160.519 194.759 164.194 198.438 164.194 204.399 160.519 208.078ZM169.409 172.55C173.087 168.868 179.054 168.864 182.736 172.542 186.419 176.22 186.422 182.187 182.745 185.869 179.066 189.552 173.1 189.555 169.417 185.877 169.415 185.875 169.412 185.872 169.409 185.869 165.734 182.19 165.734 176.229 169.409 172.55ZM191.618 239.177C187.94 242.859 181.973 242.863 178.29 239.185 174.608 235.507 174.604 229.54 178.282 225.858 181.96 222.175 187.927 222.171 191.609 225.849 191.612 225.852 191.615 225.855 191.618 225.858 195.292 229.537 195.292 235.497 191.618 239.177ZM213.826 216.968C210.149 220.65 204.182 220.654 200.499 216.976 196.817 213.298 196.813 207.331 200.491 203.649 204.169 199.966 210.136 199.962 213.818 203.641 213.821 203.643 213.824 203.646 213.826 203.649 217.501 207.328 217.501 213.288 213.826 216.968ZM236.035 194.759C232.357 198.441 226.391 198.445 222.708 194.767 219.026 191.089 219.022 185.122 222.7 181.44 226.378 177.757 232.345 177.754 236.027 181.432 236.03 181.434 236.032 181.437 236.035 181.44 239.71 185.119 239.71 191.08 236.035 194.759Z" fill="#FFFFFF" fill-rule="nonzero" fill-opacity="1" transform="matrix(1 0 0 1.00172 2009.44 426.919)"/></g></g></g><rect x="1937" y="430" width="230" height="145" fill="#5C4D7D" fill-opacity="1"/><g clip-path="url(#clip10)"><g clip-path="url(#clip11)"><g clip-path="url(#clip12)"><path d="M135.852 148.531 47.3903 148.531C38.6711 148.518 31.6059 141.453 31.5936 132.734L31.5936 44.231C31.6059 35.5118 38.6711 28.4464 47.3903 28.4342L135.852 28.4342C144.571 28.4464 151.637 35.5118 151.649 44.231L151.649 132.731C151.639 141.451 144.573 148.518 135.852 148.531ZM47.3903 34.7529C42.1556 34.7529 37.9123 38.9962 37.9123 44.231L37.9123 132.731C37.9123 137.966 42.1556 142.209 47.3903 142.209L135.852 142.209C141.087 142.209 145.33 137.966 145.33 132.731L145.33 44.231C145.33 38.9962 141.087 34.7529 135.852 34.7529Z" fill="#FFFFFF" fill-rule="nonzero" fill-opacity="1" transform="matrix(1 0 0 1.00124 2008 425)"/><path d="M195.88 277.477 195.88 277.477C191.687 277.488 187.664 275.819 184.712 272.842L122.156 210.261C115.996 204.087 115.996 194.09 122.156 187.915L184.712 125.36C187.664 122.381 191.686 120.707 195.88 120.713 200.072 120.701 204.094 122.369 207.048 125.344L269.604 187.925C275.765 194.101 275.765 204.098 269.604 210.274L207.064 272.845C204.105 275.822 200.077 277.49 195.88 277.477ZM126.52 205.696 126.624 205.804 189.179 268.378C190.951 270.163 193.365 271.165 195.88 271.158 198.395 271.166 200.808 270.167 202.581 268.384L265.136 205.804C268.84 202.104 268.843 196.103 265.144 192.4 265.141 192.397 265.139 192.395 265.136 192.392L202.581 129.812C200.808 128.027 198.396 127.026 195.88 127.031 193.366 127.024 190.954 128.022 189.179 129.802L126.624 192.386C122.955 196.048 122.909 201.977 126.52 205.696Z" fill="#FFFFFF" fill-rule="nonzero" fill-opacity="1" transform="matrix(1 0 0 1.00124 2008 425)"/><path d="M113.737 127.989C109.375 127.989 105.838 124.452 105.838 120.09 105.838 115.728 109.375 112.192 113.737 112.192 118.099 112.192 121.635 115.728 121.635 120.09 121.635 124.452 118.099 127.989 113.737 127.989Z" fill="#FFFFFF" fill-rule="nonzero" fill-opacity="1" transform="matrix(1 0 0 1.00124 2008 425)"/><path d="M69.5058 127.989C65.1437 127.989 61.6074 124.452 61.6074 120.09 61.6074 115.728 65.1437 112.192 69.5058 112.192 73.8679 112.192 77.4042 115.728 77.4042 120.09 77.4042 124.452 73.8679 127.989 69.5058 127.989Z" fill="#FFFFFF" fill-rule="nonzero" fill-opacity="1" transform="matrix(1 0 0 1.00124 2008 425)"/><path d="M121.642 88.4872C121.642 92.8494 118.105 96.3856 113.743 96.3856 109.381 96.3856 105.845 92.8494 105.845 88.4872 105.845 84.1251 109.381 80.5888 113.743 80.5888 118.105 80.5888 121.642 84.1251 121.642 88.4872Z" fill="#FFFFFF" fill-rule="nonzero" fill-opacity="1" transform="matrix(1 0 0 1.00124 2008 425)"/><path d="M77.4074 88.4872C77.4074 92.8494 73.8711 96.3856 69.509 96.3856 65.1468 96.3856 61.6106 92.8494 61.6106 88.4872 61.6106 84.1251 65.1468 80.5888 69.509 80.5888 73.8711 80.5888 77.4074 84.1251 77.4074 88.4872Z" fill="#FFFFFF" fill-rule="nonzero" fill-opacity="1" transform="matrix(1 0 0 1.00124 2008 425)"/><path d="M113.737 64.7858C109.375 64.7858 105.838 61.2495 105.838 56.8874 105.838 52.5252 109.375 48.989 113.737 48.989 118.099 48.989 121.635 52.5252 121.635 56.8874 121.635 61.2495 118.099 64.7858 113.737 64.7858Z" fill="#FFFFFF" fill-rule="nonzero" fill-opacity="1" transform="matrix(1 0 0 1.00124 2008 425)"/><path d="M69.5058 64.7858C65.1437 64.7858 61.6074 61.2495 61.6074 56.8874 61.6074 52.5252 65.1437 48.989 69.5058 48.989 73.8679 48.989 77.4042 52.5252 77.4042 56.8874 77.4042 61.2495 73.8679 64.7858 69.5058 64.7858Z" fill="#FFFFFF" fill-rule="nonzero" fill-opacity="1" transform="matrix(1 0 0 1.00124 2008 425)"/><path d="M189.182 244.983C184.82 244.984 181.283 241.448 181.282 237.086 181.281 232.724 184.817 229.187 189.179 229.186 193.541 229.185 197.078 232.721 197.079 237.083 197.079 239.175 196.249 241.183 194.771 242.664 193.293 244.153 191.28 244.988 189.182 244.983Z" fill="#FFFFFF" fill-rule="nonzero" fill-opacity="1" transform="matrix(1 0 0 1.00124 2008 425)"/><path d="M211.519 222.637C207.157 222.636 203.621 219.099 203.622 214.737 203.623 210.375 207.16 206.839 211.522 206.84 215.884 206.841 219.419 210.378 219.419 214.74 219.418 216.833 218.587 218.84 217.108 220.321 215.629 221.809 213.617 222.643 211.519 222.637Z" fill="#FFFFFF" fill-rule="nonzero" fill-opacity="1" transform="matrix(1 0 0 1.00124 2008 425)"/><path d="M157.901 213.696C153.539 213.691 150.007 210.151 150.011 205.789 150.015 201.427 153.555 197.894 157.917 197.899 160.004 197.901 162.005 198.729 163.484 200.202 166.574 203.281 166.583 208.282 163.505 211.372 162.021 212.862 160.004 213.698 157.901 213.696Z" fill="#FFFFFF" fill-rule="nonzero" fill-opacity="1" transform="matrix(1 0 0 1.00124 2008 425)"/><path d="M233.855 200.303C229.493 200.299 225.961 196.759 225.965 192.397 225.969 188.035 229.509 184.502 233.871 184.506 235.958 184.509 237.96 185.336 239.438 186.81 242.528 189.888 242.537 194.889 239.459 197.979 237.975 199.469 235.958 200.305 233.855 200.303Z" fill="#FFFFFF" fill-rule="nonzero" fill-opacity="1" transform="matrix(1 0 0 1.00124 2008 425)"/><path d="M180.254 191.353C178.16 191.359 176.152 190.526 174.678 189.04 171.593 185.956 171.592 180.955 174.676 177.87 177.76 174.785 182.761 174.784 185.846 177.869 188.931 180.953 188.932 185.954 185.848 189.038 184.365 190.522 182.352 191.355 180.254 191.353Z" fill="#FFFFFF" fill-rule="nonzero" fill-opacity="1" transform="matrix(1 0 0 1.00124 2008 425)"/><path d="M202.594 169.026C198.232 169.026 194.695 165.491 194.694 161.129 194.693 156.767 198.228 153.23 202.59 153.229 206.953 153.228 210.49 156.763 210.49 161.126 210.491 163.218 209.661 165.225 208.183 166.707 206.705 168.197 204.692 169.032 202.594 169.026Z" fill="#FFFFFF" fill-rule="nonzero" fill-opacity="1" transform="matrix(1 0 0 1.00124 2008 425)"/></g></g></g><text fill="#FFFFFF" fill-opacity="1" font-family="Metropolis,Metropolis_MSFontService,sans-serif" font-style="normal" font-variant="normal" font-weight="700" font-stretch="normal" font-size="83" text-anchor="start" direction="ltr" writing-mode="lr-tb" unicode-bidi="normal" text-decoration="none" transform="matrix(1 0 0 1 1988.84 814)">SCORE</text><g clip-path="url(#clip13)"><g clip-path="url(#clip14)"><g clip-path="url(#clip15)"><path d="M243.802 151C256.896 151.064 267.564 140.501 267.628 127.406 267.692 114.312 257.129 103.644 244.034 103.58 230.94 103.516 220.272 114.079 220.208 127.174 220.198 129.22 220.453 131.258 220.966 133.239L179.287 149.911C174.533 140.072 165.017 133.401 154.146 132.285L154.146 87.8473C167.06 86.1099 176.12 74.2325 174.383 61.3185 172.645 48.4043 160.768 39.3437 147.854 41.0811 134.94 42.8185 125.88 54.6959 127.617 67.6102 129.034 78.1443 137.32 86.4301 147.854 87.8473L147.854 132.285C136.985 133.399 127.47 140.066 122.713 149.902L81.0335 133.229C84.257 120.604 76.6356 107.755 64.0101 104.532 51.3846 101.308 38.5364 108.93 35.3129 121.555 32.0891 134.181 39.7108 147.029 52.3363 150.252 62.6341 152.882 73.419 148.301 78.6772 139.065L120.548 155.813C117.926 165.861 120.499 176.556 127.406 184.311L93.6042 218.104C82.8574 210.68 68.1271 213.374 60.7032 224.121 53.2794 234.868 55.9735 249.598 66.7203 257.022 77.4674 264.446 92.1977 261.751 99.6212 251.005 105.679 242.236 105.123 230.498 98.2632 222.341L132.005 188.599C143.212 197.189 158.788 197.189 169.994 188.599L203.737 222.341C195.336 232.332 196.626 247.241 206.617 255.641 216.608 264.041 231.517 262.752 239.917 252.761 248.317 242.77 247.028 227.861 237.037 219.461 228.886 212.608 217.158 212.052 208.396 218.104L174.594 184.311C181.494 176.556 184.064 165.866 181.442 155.822L223.313 139.074C227.505 146.441 235.326 150.994 243.802 151ZM58.1979 144.708C48.6421 144.708 40.8958 136.962 40.8958 127.406 40.8958 117.85 48.6421 110.104 58.1979 110.104 67.7537 110.104 75.5 117.85 75.5 127.406 75.4896 136.958 67.7493 144.698 58.1979 144.708ZM133.698 64.4895C133.698 54.9338 141.444 47.1875 151 47.1875 160.556 47.1875 168.302 54.9338 168.302 64.4895 168.302 74.0453 160.556 81.7916 151 81.7916 141.449 81.7812 133.708 74.0409 133.698 64.4895ZM80.2187 254.812C70.6629 254.812 62.9166 247.066 62.9166 237.51 62.9166 227.954 70.6629 220.208 80.2187 220.208 89.7745 220.208 97.5208 227.954 97.5208 237.51 97.5104 247.062 89.7701 254.802 80.2187 254.812ZM239.083 237.51C239.083 247.066 231.337 254.812 221.781 254.812 212.225 254.812 204.479 247.066 204.479 237.51 204.479 227.954 212.225 220.208 221.781 220.208 231.332 220.219 239.073 227.959 239.083 237.51ZM151 188.75C137.101 188.75 125.833 177.482 125.833 163.583 125.833 149.684 137.101 138.417 151 138.417 164.899 138.417 176.167 149.684 176.167 163.583 176.151 177.476 164.893 188.734 151 188.75ZM243.802 110.104C253.358 110.104 261.104 117.85 261.104 127.406 261.104 136.962 253.358 144.708 243.802 144.708 234.246 144.708 226.5 136.962 226.5 127.406 226.51 117.855 234.251 110.114 243.802 110.104Z" fill="#FFFFFF" fill-rule="nonzero" fill-opacity="1" transform="matrix(1 0 0 1 1986 1204)"/></g></g></g><text fill="#FFFFFF" fill-opacity="1" font-family="Metropolis,Metropolis_MSFontService,sans-serif" font-style="normal" font-variant="normal" font-weight="700" font-stretch="normal" font-size="83" text-anchor="start" direction="ltr" writing-mode="lr-tb" unicode-bidi="normal" text-decoration="none" transform="matrix(1 0 0 1 1930.01 1585)">CLUSTER<tspan fill="#FFFFFF" fill-opacity="1" font-family="Metropolis Light,Metropolis Light_MSFontService,sans-serif" font-style="normal" font-variant="normal" font-weight="300" font-stretch="normal" font-size="64" text-anchor="start" direction="ltr" writing-mode="lr-tb" unicode-bidi="normal" text-decoration="none" x="-67.7022" y="116">Cluster proteins </tspan><tspan fill="#FFFFFF" fill-opacity="1" font-family="Metropolis Light,Metropolis Light_MSFontService,sans-serif" font-style="normal" font-variant="normal" font-weight="300" font-stretch="normal" font-size="64" text-anchor="start" direction="ltr" writing-mode="lr-tb" unicode-bidi="normal" text-decoration="none" x="19.1062" y="193">using </tspan><tspan fill="#FFFFFF" fill-opacity="1" font-family="Metropolis Light,Metropolis Light_MSFontService,sans-serif" font-style="normal" font-variant="normal" font-weight="300" font-stretch="normal" font-size="64" text-anchor="start" direction="ltr" writing-mode="lr-tb" unicode-bidi="normal" text-decoration="none" x="213.325" y="193">kmer</tspan><tspan fill="#FFFFFF" fill-opacity="1" font-family="Metropolis Light,Metropolis Light_MSFontService,sans-serif" font-style="normal" font-variant="normal" font-weight="300" font-stretch="normal" font-size="64" text-anchor="start" direction="ltr" writing-mode="lr-tb" unicode-bidi="normal" text-decoration="none" x="-20.4251" y="270">vector space</tspan><tspan fill="#FFFFFF" fill-opacity="1" font-family="Metropolis,Metropolis_MSFontService,sans-serif" font-style="normal" font-variant="normal" font-weight="700" font-stretch="normal" font-size="83" text-anchor="start" direction="ltr" writing-mode="lr-tb" unicode-bidi="normal" text-decoration="none" x="-825.773" y="-567">KMERIZE</tspan><tspan fill="#FFFFFF" fill-opacity="1" font-family="Metropolis Light,Metropolis Light_MSFontService,sans-serif" font-style="normal" font-variant="normal" font-weight="300" font-stretch="normal" font-size="64" text-anchor="start" direction="ltr" writing-mode="lr-tb" unicode-bidi="normal" text-decoration="none" x="-832.362" y="-307">Apply amino </tspan><tspan fill="#FFFFFF" fill-opacity="1" font-family="Metropolis Light,Metropolis Light_MSFontService,sans-serif" font-style="normal" font-variant="normal" font-weight="300" font-stretch="normal" font-size="64" text-anchor="start" direction="ltr" writing-mode="lr-tb" unicode-bidi="normal" text-decoration="none" x="-848.976" y="-230">acid recoding </tspan><tspan fill="#FFFFFF" fill-opacity="1" font-family="Metropolis Light,Metropolis Light_MSFontService,sans-serif" font-style="normal" font-variant="normal" font-weight="300" font-stretch="normal" font-size="64" text-anchor="start" direction="ltr" writing-mode="lr-tb" unicode-bidi="normal" text-decoration="none" x="-801.424" y="-153">(AAR) and </tspan><tspan fill="#FFFFFF" fill-opacity="1" font-family="Metropolis Light,Metropolis Light_MSFontService,sans-serif" font-style="normal" font-variant="normal" font-weight="300" font-stretch="normal" font-size="64" text-anchor="start" direction="ltr" writing-mode="lr-tb" unicode-bidi="normal" text-decoration="none" x="-796.841" y="-76">build </tspan><tspan fill="#FFFFFF" fill-opacity="1" font-family="Metropolis Light,Metropolis Light_MSFontService,sans-serif" font-style="normal" font-variant="normal" font-weight="300" font-stretch="normal" font-size="64" text-anchor="start" direction="ltr" writing-mode="lr-tb" unicode-bidi="normal" text-decoration="none" x="-616.945" y="-76">kmer</tspan><tspan fill="#FFFFFF" fill-opacity="1" font-family="Metropolis Light,Metropolis Light_MSFontService,sans-serif" font-style="normal" font-variant="normal" font-weight="300" font-stretch="normal" font-size="64" text-anchor="start" direction="ltr" writing-mode="lr-tb" unicode-bidi="normal" text-decoration="none" x="-792.532" y="1">frequency </tspan><tspan fill="#FFFFFF" fill-opacity="1" font-family="Metropolis Light,Metropolis Light_MSFontService,sans-serif" font-style="normal" font-variant="normal" font-weight="300" font-stretch="normal" font-size="64" text-anchor="start" direction="ltr" writing-mode="lr-tb" unicode-bidi="normal" text-decoration="none" x="-751.282" y="78">vectors</tspan></text><g clip-path="url(#clip16)"><g clip-path="url(#clip17)"><g clip-path="url(#clip18)"><path d="M40.8958 251.667 261.104 251.667C269.787 251.656 276.823 244.62 276.833 235.937L276.833 66.0625C276.823 57.3797 269.787 50.3437 261.104 50.3333L40.8958 50.3333C32.213 50.3437 25.1771 57.3797 25.1667 66.0625L25.1667 235.937C25.1771 244.62 32.213 251.656 40.8958 251.667ZM31.4583 235.937 31.4583 132.125 72.3541 132.125 72.3541 176.167 69.2083 176.167C62.2588 176.167 56.625 181.8 56.625 188.75 56.625 195.699 62.2588 201.333 69.2083 201.333L72.3541 201.333 72.3541 207.625 69.2083 207.625C62.2588 207.625 56.625 213.259 56.625 220.208 56.625 227.158 62.2588 232.792 69.2083 232.792L72.3541 232.792 72.3541 245.375 40.8958 245.375C35.6835 245.375 31.4583 241.15 31.4583 235.937ZM81.7916 75.5C85.2665 75.5 88.0833 78.3167 88.0833 81.7916 88.0833 85.2665 85.2665 88.0833 81.7916 88.0833L69.2083 88.0833C65.7334 88.0833 62.9166 85.2665 62.9166 81.7916 62.9166 78.3167 65.7334 75.5 69.2083 75.5ZM81.7916 94.3749C88.7411 94.3749 94.3749 88.7411 94.3749 81.7916 94.3749 74.8422 88.7411 69.2083 81.7916 69.2083L78.6458 69.2083 78.6458 56.625 122.687 56.625 122.687 88.0833 119.542 88.0833C112.592 88.0833 106.958 93.7171 106.958 100.667 106.958 107.616 112.592 113.25 119.542 113.25L122.687 113.25 122.687 125.833 78.6458 125.833 78.6458 94.3749ZM220.208 106.958C216.733 106.958 213.917 104.141 213.917 100.667 213.917 97.1917 216.733 94.3749 220.208 94.3749L232.792 94.3749C236.266 94.3749 239.083 97.1917 239.083 100.667 239.083 104.141 236.266 106.958 232.792 106.958ZM220.208 88.0833C213.259 88.0833 207.625 93.7171 207.625 100.667 207.625 107.616 213.259 113.25 220.208 113.25L223.354 113.25 223.354 125.833 179.312 125.833 179.312 94.3749 182.458 94.3749C189.408 94.3749 195.042 88.7411 195.042 81.7916 195.042 74.8422 189.408 69.2083 182.458 69.2083L179.312 69.2083 179.312 56.625 223.354 56.625 223.354 88.0833ZM220.208 163.583C216.733 163.583 213.917 160.766 213.917 157.292 213.917 153.817 216.733 151 220.208 151L232.792 151C236.266 151 239.083 153.817 239.083 157.292 239.083 160.766 236.266 163.583 232.792 163.583ZM220.208 144.708C213.259 144.708 207.625 150.342 207.625 157.292 207.625 164.241 213.259 169.875 220.208 169.875L223.354 169.875 223.354 207.625 220.208 207.625C213.259 207.625 207.625 213.259 207.625 220.208 207.625 227.158 213.259 232.792 220.208 232.792L223.354 232.792 223.354 245.375 179.312 245.375 179.312 232.792 182.458 232.792C189.408 232.792 195.042 227.158 195.042 220.208 195.042 213.259 189.408 207.625 182.458 207.625L179.312 207.625 179.312 201.333 182.458 201.333C189.408 201.333 195.042 195.699 195.042 188.75 195.042 181.8 189.408 176.167 182.458 176.167L179.312 176.167 179.312 132.125 223.354 132.125 223.354 144.708ZM220.208 226.5C216.733 226.5 213.917 223.683 213.917 220.208 213.917 216.733 216.733 213.917 220.208 213.917L232.792 213.917C236.266 213.917 239.083 216.733 239.083 220.208 239.083 223.683 236.266 226.5 232.792 226.5ZM132.125 182.458C135.6 182.458 138.417 185.275 138.417 188.75 138.417 192.225 135.6 195.042 132.125 195.042L119.542 195.042C116.067 195.042 113.25 192.225 113.25 188.75 113.25 185.275 116.067 182.458 119.542 182.458ZM132.125 201.333C139.074 201.333 144.708 195.699 144.708 188.75 144.708 181.8 139.074 176.167 132.125 176.167L128.979 176.167 128.979 169.875 132.125 169.875C139.074 169.875 144.708 164.241 144.708 157.292 144.708 150.342 139.074 144.708 132.125 144.708L128.979 144.708 128.979 132.125 173.021 132.125 173.021 176.167 169.875 176.167C162.925 176.167 157.292 181.8 157.292 188.75 157.292 195.699 162.925 201.333 169.875 201.333L173.021 201.333 173.021 207.625 169.875 207.625C162.925 207.625 157.292 213.259 157.292 220.208 157.292 227.158 162.925 232.792 169.875 232.792L173.021 232.792 173.021 245.375 128.979 245.375 128.979 201.333ZM132.125 151C135.6 151 138.417 153.817 138.417 157.292 138.417 160.766 135.6 163.583 132.125 163.583L119.542 163.583C116.067 163.583 113.25 160.766 113.25 157.292 113.25 153.817 116.067 151 119.542 151ZM169.875 195.042C166.4 195.042 163.583 192.225 163.583 188.75 163.583 185.275 166.4 182.458 169.875 182.458L182.458 182.458C185.933 182.458 188.75 185.275 188.75 188.75 188.75 192.225 185.933 195.042 182.458 195.042ZM169.875 226.5C166.4 226.5 163.583 223.683 163.583 220.208 163.583 216.733 166.4 213.917 169.875 213.917L182.458 213.917C185.933 213.917 188.75 216.733 188.75 220.208 188.75 223.683 185.933 226.5 182.458 226.5ZM182.458 75.5C185.933 75.5 188.75 78.3167 188.75 81.7916 188.75 85.2665 185.933 88.0833 182.458 88.0833L169.875 88.0833C166.4 88.0833 163.583 85.2665 163.583 81.7916 163.583 78.3167 166.4 75.5 169.875 75.5ZM173.021 69.2083 169.875 69.2083C162.925 69.2083 157.292 74.8422 157.292 81.7916 157.292 88.7411 162.925 94.3749 169.875 94.3749L173.021 94.3749 173.021 125.833 128.979 125.833 128.979 113.25 132.125 113.25C139.074 113.25 144.708 107.616 144.708 100.667 144.708 93.7171 139.074 88.0833 132.125 88.0833L128.979 88.0833 128.979 56.625 173.021 56.625ZM132.125 94.3749C135.6 94.3749 138.417 97.1917 138.417 100.667 138.417 104.141 135.6 106.958 132.125 106.958L119.542 106.958C116.067 106.958 113.25 104.141 113.25 100.667 113.25 97.1917 116.067 94.3749 119.542 94.3749ZM122.687 132.125 122.687 144.708 119.542 144.708C112.592 144.708 106.958 150.342 106.958 157.292 106.958 164.241 112.592 169.875 119.542 169.875L122.687 169.875 122.687 176.167 119.542 176.167C112.592 176.167 106.958 181.8 106.958 188.75 106.958 195.699 112.592 201.333 119.542 201.333L122.687 201.333 122.687 245.375 78.6458 245.375 78.6458 232.792 81.7916 232.792C88.7411 232.792 94.3749 227.158 94.3749 220.208 94.3749 213.259 88.7411 207.625 81.7916 207.625L78.6458 207.625 78.6458 201.333 81.7916 201.333C88.7411 201.333 94.3749 195.699 94.3749 188.75 94.3749 181.8 88.7411 176.167 81.7916 176.167L78.6458 176.167 78.6458 132.125ZM81.7916 213.917C85.2665 213.917 88.0833 216.733 88.0833 220.208 88.0833 223.683 85.2665 226.5 81.7916 226.5L69.2083 226.5C65.7334 226.5 62.9166 223.683 62.9166 220.208 62.9166 216.733 65.7334 213.917 69.2083 213.917ZM81.7916 182.458C85.2665 182.458 88.0833 185.275 88.0833 188.75 88.0833 192.225 85.2665 195.042 81.7916 195.042L69.2083 195.042C65.7334 195.042 62.9166 192.225 62.9166 188.75 62.9166 185.275 65.7334 182.458 69.2083 182.458ZM261.104 245.375 229.646 245.375 229.646 232.792 232.792 232.792C239.741 232.792 245.375 227.158 245.375 220.208 245.375 213.259 239.741 207.625 232.792 207.625L229.646 207.625 229.646 169.875 232.792 169.875C239.741 169.875 245.375 164.241 245.375 157.292 245.375 150.342 239.741 144.708 232.792 144.708L229.646 144.708 229.646 132.125 270.542 132.125 270.542 235.937C270.542 241.15 266.316 245.375 261.104 245.375ZM270.542 66.0625 270.542 125.833 229.646 125.833 229.646 113.25 232.792 113.25C239.741 113.25 245.375 107.616 245.375 100.667 245.375 93.7171 239.741 88.0833 232.792 88.0833L229.646 88.0833 229.646 56.625 261.104 56.625C266.316 56.625 270.542 60.8501 270.542 66.0625ZM40.8958 56.625 72.3541 56.625 72.3541 69.2083 69.2083 69.2083C62.2588 69.2083 56.625 74.8422 56.625 81.7916 56.625 88.7411 62.2588 94.3749 69.2083 94.3749L72.3541 94.3749 72.3541 125.833 31.4583 125.833 31.4583 66.0625C31.4583 60.8501 35.6835 56.625 40.8958 56.625Z" fill="#FFFFFF" fill-rule="nonzero" fill-opacity="1" transform="matrix(1 0 0 1 1156 602)"/></g></g></g><path d="M1656 1163 3374.45 1163" stroke="#7F7F7F" stroke-width="13.75" stroke-linecap="butt" stroke-linejoin="miter" stroke-miterlimit="8" stroke-dasharray="13.75 13.75" stroke-opacity="1" fill="none" fill-rule="evenodd"/><text fill="#FFFFFF" fill-opacity="1" font-family="Metropolis,Metropolis_MSFontService,sans-serif" font-style="normal" font-variant="normal" font-weight="700" font-stretch="normal" font-size="83" text-anchor="start" direction="ltr" writing-mode="lr-tb" unicode-bidi="normal" text-decoration="none" transform="matrix(1 0 0 1 319.218 1019)">PROCESS<tspan fill="#FFFFFF" fill-opacity="1" font-family="Metropolis Light,Metropolis Light_MSFontService,sans-serif" font-style="normal" font-variant="normal" font-weight="300" font-stretch="normal" font-size="64" text-anchor="start" direction="ltr" writing-mode="lr-tb" unicode-bidi="normal" text-decoration="none" x="19.3723" y="240">Detect input </tspan><tspan fill="#FFFFFF" fill-opacity="1" font-family="Metropolis Light,Metropolis Light_MSFontService,sans-serif" font-style="normal" font-variant="normal" font-weight="300" font-stretch="normal" font-size="64" text-anchor="start" direction="ltr" writing-mode="lr-tb" unicode-bidi="normal" text-decoration="none" x="-20.4568" y="317">sequence </tspan><tspan fill="#FFFFFF" fill-opacity="1" font-family="Metropolis Light,Metropolis Light_MSFontService,sans-serif" font-style="normal" font-variant="normal" font-weight="300" font-stretch="normal" font-size="64" text-anchor="start" direction="ltr" writing-mode="lr-tb" unicode-bidi="normal" text-decoration="none" x="321.574" y="317">files; </tspan><tspan fill="#FFFFFF" fill-opacity="1" font-family="Metropolis Light,Metropolis Light_MSFontService,sans-serif" font-style="normal" font-variant="normal" font-weight="300" font-stretch="normal" font-size="64" text-anchor="start" direction="ltr" writing-mode="lr-tb" unicode-bidi="normal" text-decoration="none" x="6.19525" y="394">a</tspan><tspan fill="#FFFFFF" fill-opacity="1" font-family="Metropolis Light,Metropolis Light_MSFontService,sans-serif" font-style="normal" font-variant="normal" font-weight="300" font-stretch="normal" font-size="64" text-anchor="start" direction="ltr" writing-mode="lr-tb" unicode-bidi="normal" text-decoration="none" x="45.1536" y="394">utomatically </tspan><tspan fill="#FFFFFF" fill-opacity="1" font-family="Metropolis Light,Metropolis Light_MSFontService,sans-serif" font-style="normal" font-variant="normal" font-weight="300" font-stretch="normal" font-size="64" text-anchor="start" direction="ltr" writing-mode="lr-tb" unicode-bidi="normal" text-decoration="none" x="-3.84222" y="471">handle zipped </tspan><tspan fill="#FFFFFF" fill-opacity="1" font-family="Metropolis Light,Metropolis Light_MSFontService,sans-serif" font-style="normal" font-variant="normal" font-weight="300" font-stretch="normal" font-size="64" text-anchor="start" direction="ltr" writing-mode="lr-tb" unicode-bidi="normal" text-decoration="none" x="160.012" y="548">files</tspan></text><g clip-path="url(#clip19)"><g clip-path="url(#clip20)"><g clip-path="url(#clip21)"><path d="M109.687 60.9374 165.75 60.9374 165.75 65.8124 109.687 65.8124Z" fill="#FFFFFF" fill-rule="nonzero" fill-opacity="1" transform="matrix(1 0 0 1 390 637)"/><path d="M109.687 97.4999 165.75 97.4999 165.75 102.375 109.687 102.375Z" fill="#FFFFFF" fill-rule="nonzero" fill-opacity="1" transform="matrix(1 0 0 1 390 637)"/><path d="M109.687 134.062 165.75 134.062 165.75 138.937 109.687 138.937Z" fill="#FFFFFF" fill-rule="nonzero" fill-opacity="1" transform="matrix(1 0 0 1 390 637)"/><path d="M109.687 170.625 165.75 170.625 165.75 175.5 109.687 175.5Z" fill="#FFFFFF" fill-rule="nonzero" fill-opacity="1" transform="matrix(1 0 0 1 390 637)"/><path d="M43.875 214.5 190.125 214.5 190.125 19.5 43.875 19.5ZM48.7499 24.375 185.25 24.375 185.25 209.625 48.7499 209.625Z" fill="#FFFFFF" fill-rule="nonzero" fill-opacity="1" transform="matrix(1 0 0 1 390 637)"/><path d="M68.2499 74.3437 90.1874 74.3437 90.1874 52.4062 68.2499 52.4062ZM73.1249 57.2812 85.3124 57.2812 85.3124 69.4687 73.1249 69.4687Z" fill="#FFFFFF" fill-rule="nonzero" fill-opacity="1" transform="matrix(1 0 0 1 390 637)"/><path d="M68.2499 110.906 90.1874 110.906 90.1874 88.9687 68.2499 88.9687ZM73.1249 93.8437 85.3124 93.8437 85.3124 106.031 73.1249 106.031Z" fill="#FFFFFF" fill-rule="nonzero" fill-opacity="1" transform="matrix(1 0 0 1 390 637)"/><path d="M68.2499 147.469 90.1874 147.469 90.1874 125.531 68.2499 125.531ZM73.1249 130.406 85.3124 130.406 85.3124 142.594 73.1249 142.594Z" fill="#FFFFFF" fill-rule="nonzero" fill-opacity="1" transform="matrix(1 0 0 1 390 637)"/><path d="M68.2499 184.031 90.1874 184.031 90.1874 162.094 68.2499 162.094ZM73.1249 166.969 85.3124 166.969 85.3124 179.156 73.1249 179.156Z" fill="#FFFFFF" fill-rule="nonzero" fill-opacity="1" transform="matrix(1 0 0 1 390 637)"/></g></g></g><path d="M3432 323 4210.5 323 4349 761.501 4210.5 1200 3432 1200 3570.5 761.501Z" fill="#4CC4B6" fill-rule="evenodd" fill-opacity="1"/><g clip-path="url(#clip22)"><g clip-path="url(#clip23)"><g clip-path="url(#clip24)"><path d="M3989.56 626.188C3984.56 621.188 3977.06 618.688 3970.19 620.25L3956.12 606.5C3968.62 590.25 3975.5 570.25 3975.5 549.625 3975.81 497.438 3933.62 455.25 3881.75 454.938 3829.88 454.625 3787.69 496.813 3787.38 548.688 3787.06 600.563 3829.25 642.75 3881.12 643.063 3901.75 643.063 3922.06 636.188 3938.62 623.688L3952.38 637.438C3951.12 644.625 3953.31 651.813 3958.31 657.125L3997.38 696.188C4005.81 704.625 4019.88 704.625 4028.31 696.188 4036.75 687.75 4036.75 673.688 4028.31 665.25L3989.56 626.188ZM3881.75 624.313C3840.19 624.313 3806.75 590.875 3806.75 549.313 3806.75 507.75 3840.19 474.312 3881.75 474.312 3923.31 474.312 3956.75 507.75 3956.75 549.313 3956.75 590.563 3923 624.313 3881.75 624.313Z" fill="#FFFFFF" fill-rule="nonzero" fill-opacity="1"/><path d="M3948.94 544.625 3931.12 544.625C3929.56 544.938 3928 545.875 3927.06 547.125L3915.19 559.938 3905.19 525.25C3904.25 522.438 3901.12 520.562 3898.31 521.5 3896.75 522.125 3895.19 523.062 3894.56 524.938L3875.81 574.625 3863 505.875C3862.38 502.75 3859.56 500.875 3856.75 501.5 3854.88 501.813 3853.31 503.375 3852.38 505.25L3838.94 544.625 3814.56 544.625 3814.56 557.125 3843 557.125C3845.5 556.813 3847.69 554.938 3848.31 552.438L3856.12 528.688 3868.62 595.875C3868.94 598.375 3871.12 600.25 3873.62 600.25L3874.25 600.25C3876.44 600.25 3878.62 599 3879.56 596.813L3899.56 544.313 3907.69 572.438C3908.62 575.25 3911.44 577.125 3914.56 576.188 3915.5 575.875 3916.44 575.25 3917.06 574.625L3933.94 557.125 3949.25 557.125 3949.25 544.625Z" fill="#FFFFFF" fill-rule="nonzero" fill-opacity="1"/></g></g></g><text fill="#FFFFFF" fill-opacity="1" font-family="Metropolis Light,Metropolis Light_MSFontService,sans-serif" font-style="normal" font-variant="normal" font-weight="300" font-stretch="normal" font-size="64" text-anchor="start" direction="ltr" writing-mode="lr-tb" unicode-bidi="normal" text-decoration="none" transform="matrix(1 0 0 1 3690.57 907)">Assign family <tspan fill="#FFFFFF" fill-opacity="1" font-family="Metropolis Light,Metropolis Light_MSFontService,sans-serif" font-style="normal" font-variant="normal" font-weight="300" font-stretch="normal" font-size="64" text-anchor="start" direction="ltr" writing-mode="lr-tb" unicode-bidi="normal" text-decoration="none" x="-41.823" y="77">probabilities via </tspan><tspan fill="#FFFFFF" fill-opacity="1" font-family="Metropolis Light,Metropolis Light_MSFontService,sans-serif" font-style="normal" font-variant="normal" font-weight="300" font-stretch="normal" font-size="64" text-anchor="start" direction="ltr" writing-mode="lr-tb" unicode-bidi="normal" text-decoration="none" x="-26.0791" y="154">trained models</tspan><tspan fill="#FFFFFF" fill-opacity="1" font-family="Metropolis,Metropolis_MSFontService,sans-serif" font-style="normal" font-variant="normal" font-weight="700" font-stretch="normal" font-size="83" text-anchor="start" direction="ltr" writing-mode="lr-tb" unicode-bidi="normal" text-decoration="none" x="35.8074" y="-93">SEARCH</tspan></text></g></svg>