<svg width="1327" height="887" xmlns="http://www.w3.org/2000/svg" xmlns:xlink="http://www.w3.org/1999/xlink" xml:space="preserve" overflow="hidden"><defs><clipPath id="clip0"><rect x="1926" y="1065" width="1327" height="887"/></clipPath><clipPath id="clip1"><rect x="1927" y="1066" width="1326" height="886"/></clipPath><clipPath id="clip2"><rect x="1927" y="1066" width="1326" height="886"/></clipPath><clipPath id="clip3"><rect x="1927" y="1066" width="1326" height="886"/></clipPath><clipPath id="clip4"><rect x="1927" y="1066" width="1326" height="886"/></clipPath><clipPath id="clip5"><rect x="2990" y="1174" width="131" height="131"/></clipPath><clipPath id="clip6"><rect x="2990" y="1174" width="131" height="131"/></clipPath><clipPath id="clip7"><rect x="2990" y="1174" width="131" height="131"/></clipPath><clipPath id="clip8"><rect x="3012" y="1190" width="92" height="93"/></clipPath><clipPath id="clip9"><rect x="3012" y="1190" width="92" height="93"/></clipPath><clipPath id="clip10"><rect x="2983" y="1182" width="135" height="133"/></clipPath><clipPath id="clip11"><rect x="2740" y="1211" width="92" height="94"/></clipPath><clipPath id="clip12"><rect x="2740" y="1211" width="92" height="94"/></clipPath><clipPath id="clip13"><rect x="2701" y="1174" width="131" height="131"/></clipPath><clipPath id="clip14"><rect x="2701" y="1174" width="68" height="64"/></clipPath><clipPath id="clip15"><rect x="2701" y="1174" width="68" height="64"/></clipPath><clipPath id="clip16"><rect x="2701" y="1174" width="131" height="129"/></clipPath><clipPath id="clip17"><rect x="2691" y="1509" width="131" height="130"/></clipPath><clipPath id="clip18"><rect x="2691" y="1509" width="131" height="130"/></clipPath><clipPath id="clip19"><rect x="2691" y="1509" width="131" height="130"/></clipPath><clipPath id="clip20"><rect x="2378" y="1262" width="131" height="131"/></clipPath><clipPath id="clip21"><rect x="2378" y="1262" width="131" height="131"/></clipPath><clipPath id="clip22"><rect x="2378" y="1262" width="131" height="131"/></clipPath><clipPath id="clip23"><rect x="2059" y="1276" width="101" height="104"/></clipPath><clipPath id="clip24"><rect x="2059" y="1276" width="101" height="104"/></clipPath><clipPath id="clip25"><rect x="2059" y="1276" width="101" height="104"/></clipPath></defs><g clip-path="url(#clip0)" transform="translate(-1926 -1065)"><g clip-path="url(#clip1)"><g clip-path="url(#clip2)"><g clip-path="url(#clip3)"><g clip-path="url(#clip4)"><text fill="#7F7F7F" fill-opacity="1" font-family="Metropolis,Metropolis_MSFontService,sans-serif" font-style="normal" font-variant="normal" font-weight="700" font-stretch="normal" font-size="18" text-anchor="start" direction="ltr" writing-mode="lr-tb" unicode-bidi="normal" text-decoration="none" transform="matrix(1.97028 0 0 1.96889 2845.18 1111)">MODEL<tspan fill="#7F7F7F" fill-opacity="1" font-family="Metropolis,Metropolis_MSFontService,sans-serif" font-style="normal" font-variant="normal" font-weight="700" font-stretch="normal" font-size="18" text-anchor="start" direction="ltr" writing-mode="lr-tb" unicode-bidi="normal" text-decoration="none" x="-100.949" y="410.892">CLUSTER</tspan></text><path d="M747.193 298.287C747.193 284.693 760.032 273.676 775.868 273.676L1054.21 273.676C1070.05 273.676 1082.89 262.658 1082.89 249.064 1082.89 262.658 1095.73 273.676 1111.56 273.676L1389.91 273.676C1405.75 273.676 1418.58 284.693 1418.58 298.287" stroke="#7F7F7F" stroke-width="5.90667" stroke-linecap="butt" stroke-linejoin="miter" stroke-miterlimit="8" stroke-opacity="1" fill="none" fill-rule="evenodd" transform="matrix(1.00071 0 0 1 1830.46 873.049)"/><path d="M49.2222 342.587C35.6298 342.587 24.6109 329.75 24.6109 313.912L24.6113 199.968C24.6113 184.131 13.5924 171.293 5.45199e-15 171.293 13.5924 171.293 24.6113 158.455 24.6113 142.619L24.6113 28.6747C24.6113 12.8381 35.6302 0 49.2226 0" stroke="#7F7F7F" stroke-width="5.90667" stroke-linecap="butt" stroke-linejoin="miter" stroke-miterlimit="8" stroke-opacity="1" fill="none" fill-rule="evenodd" transform="matrix(-1.83827e-16 -1 -1.00071 1.83697e-16 2915.1 1882.1)"/><path d="M1061.23 291.396 1323.09 291.396 1323.09 616.262 1061.23 616.262Z" stroke="#FFFFFF" stroke-width="2.95333" stroke-linecap="butt" stroke-linejoin="miter" stroke-miterlimit="8" stroke-opacity="1" fill="#1780A1" fill-rule="nonzero" fill-opacity="1" transform="matrix(1.00071 0 0 1 1830.46 873.049)"/><path d="M1061.23 291.396 1120.3 453.829 1061.23 616.262Z" fill="#FFFFFF" fill-rule="evenodd" fill-opacity="1" transform="matrix(1.00071 0 0 1 1830.46 873.049)"/><path d="M1321.12 291.396 1380.19 453.829 1321.12 616.262Z" fill="#1780A1" fill-rule="evenodd" fill-opacity="1" transform="matrix(1.00071 0 0 1 1830.46 873.049)"/><text fill="#FFFFFF" fill-opacity="1" font-family="Metropolis Extra Light,Metropolis Extra Light_MSFontService,sans-serif" font-style="normal" font-variant="normal" font-weight="200" font-stretch="normal" font-size="12" text-anchor="start" direction="ltr" writing-mode="lr-tb" unicode-bidi="normal" text-decoration="none" transform="matrix(1.97028 0 0 1.96889 2968.17 1375)">Train machine <tspan fill="#FFFFFF" fill-opacity="1" font-family="Metropolis Extra Light,Metropolis Extra Light_MSFontService,sans-serif" font-style="normal" font-variant="normal" font-weight="200" font-stretch="normal" font-size="12" text-anchor="start" direction="ltr" writing-mode="lr-tb" unicode-bidi="normal" text-decoration="none" x="-2.31504" y="15.237">learning model </tspan><tspan fill="#FFFFFF" fill-opacity="1" font-family="Metropolis Extra Light,Metropolis Extra Light_MSFontService,sans-serif" font-style="normal" font-variant="normal" font-weight="200" font-stretch="normal" font-size="12" text-anchor="start" direction="ltr" writing-mode="lr-tb" unicode-bidi="normal" text-decoration="none" x="3.99999" y="28.9503">from protein </tspan><tspan fill="#FFFFFF" fill-opacity="1" font-family="Metropolis Extra Light,Metropolis Extra Light_MSFontService,sans-serif" font-style="normal" font-variant="normal" font-weight="200" font-stretch="normal" font-size="12" text-anchor="start" direction="ltr" writing-mode="lr-tb" unicode-bidi="normal" text-decoration="none" x="1.75" y="44.1874">family scores</tspan></text><g clip-path="url(#clip5)"><g clip-path="url(#clip6)"><g clip-path="url(#clip7)"><path d="M1270.69 409.529 1181.39 409.529 1181.39 320.191 1178.69 320.191 1178.69 412.236 1270.69 412.236 1270.69 409.529Z" fill="#FFFFFF" fill-rule="nonzero" fill-opacity="1" transform="matrix(1.00071 0 0 1 1830.46 873.049)"/><path d="M1228.77 385.164 1231.47 385.164 1231.47 391.707 1228.77 391.707Z" fill="#FFFFFF" fill-rule="nonzero" fill-opacity="1" transform="matrix(1.00071 0 0 1 1830.46 873.049)"/><path d="M1228.77 372.982 1231.47 372.982 1231.47 379.525 1228.77 379.525Z" fill="#FFFFFF" fill-rule="nonzero" fill-opacity="1" transform="matrix(1.00071 0 0 1 1830.46 873.049)"/><path d="M1228.77 360.799 1231.47 360.799 1231.47 367.341 1228.77 367.341Z" fill="#FFFFFF" fill-rule="nonzero" fill-opacity="1" transform="matrix(1.00071 0 0 1 1830.46 873.049)"/><path d="M1228.77 348.615 1231.47 348.615 1231.47 355.16 1228.77 355.16Z" fill="#FFFFFF" fill-rule="nonzero" fill-opacity="1" transform="matrix(1.00071 0 0 1 1830.46 873.049)"/><path d="M1246.59 361.226C1243.95 335.869 1237.12 332.372 1230.12 332.372 1223.12 332.372 1216.29 335.869 1213.65 361.226 1211.34 383.416 1203.87 393.703 1189.42 394.585L1189.59 397.292C1205.62 396.314 1213.87 385.278 1216.34 361.51 1219.1 335.081 1226.27 335.081 1230.12 335.081 1233.97 335.081 1241.15 335.081 1243.9 361.506 1246.37 385.223 1254.61 396.255 1270.64 397.276L1270.82 394.569C1256.37 393.654 1248.89 383.368 1246.59 361.226Z" fill="#FFFFFF" fill-rule="nonzero" fill-opacity="1" transform="matrix(1.00071 0 0 1 1830.46 873.049)"/></g></g></g><path d="M1181.33 322.898 1283.72 322.898 1283.72 403.622 1181.33 403.622Z" fill="#1780A1" fill-rule="nonzero" fill-opacity="1" transform="matrix(1.00071 0 0 1 1830.46 873.049)"/><g clip-path="url(#clip8)"><g clip-path="url(#clip9)"><g clip-path="url(#clip10)"><path d="M27.3437 19.1406 19.1406 19.1406 19.1406 112.109 112.109 112.109 112.109 103.906 27.3437 103.906 27.3437 19.1406Z" fill="#FFFFFF" fill-rule="nonzero" fill-opacity="1" transform="matrix(1.00109 0 0 1 2984.47 1182.24)"/><path d="M111.091 85.6912C106.323 85.8607 93.6031 86.3147 90.9932 60.4693 88.8672 39.3272 83.412 30.3065 72.7755 30.3065 62.1387 30.3065 56.6904 39.3272 54.5508 60.4693 51.9531 86.3147 39.2382 85.8457 34.4599 85.6912 34.0622 85.6762 33.7204 85.6652 33.4414 85.6652L33.4414 93.8684C33.6396 93.8684 33.8844 93.8778 34.1687 93.8888 34.5981 93.9038 35.0218 93.9107 35.443 93.9107 51.3571 93.9107 60.5321 82.9446 62.7184 61.2937 65.018 38.5095 70.6481 38.5095 72.7755 38.5095 74.9026 38.5095 80.5329 38.5095 82.8323 61.2937 85.0773 83.5173 94.6667 94.433 111.383 93.8888 111.666 93.8778 111.91 93.8684 112.109 93.8684L112.109 85.6652C111.836 85.6652 111.489 85.6762 111.091 85.6912Z" fill="#FFFFFF" fill-rule="nonzero" fill-opacity="1" transform="matrix(1.00109 0 0 1 2984.47 1182.24)"/><path d="M71.4082 59.0174 74.1426 59.0174 74.1426 65.8532 71.4082 65.8532Z" fill="#FFFFFF" fill-rule="nonzero" fill-opacity="1" transform="matrix(1.00109 0 0 1 2984.47 1182.24)"/><path d="M71.4082 71.322 74.1426 71.322 74.1426 78.158 71.4082 78.158Z" fill="#FFFFFF" fill-rule="nonzero" fill-opacity="1" transform="matrix(1.00109 0 0 1 2984.47 1182.24)"/><path d="M71.4082 47.1693 74.1426 47.1693 74.1426 54.0052 71.4082 54.0052Z" fill="#FFFFFF" fill-rule="nonzero" fill-opacity="1" transform="matrix(1.00109 0 0 1 2984.47 1182.24)"/><path d="M71.4082 83.6268 74.1426 83.6268 74.1426 90.2344 71.4082 90.2344Z" fill="#FFFFFF" fill-rule="nonzero" fill-opacity="1" transform="matrix(1.00109 0 0 1 2984.47 1182.24)"/></g></g></g><text fill="#FFFFFF" fill-opacity="1" font-family="Metropolis,Metropolis_MSFontService,sans-serif" font-style="normal" font-variant="normal" font-weight="700" font-stretch="normal" font-size="16" text-anchor="start" direction="ltr" writing-mode="lr-tb" unicode-bidi="normal" text-decoration="none" transform="matrix(1.97028 0 0 1.96889 2992.55 1336)">MODEL</text><path d="M761.96 293.364 1025.79 293.364 1025.79 616.262 761.96 616.262Z" stroke="#FFFFFF" stroke-width="2.95333" stroke-linecap="butt" stroke-linejoin="miter" stroke-miterlimit="8" stroke-opacity="1" fill="#5C4D7D" fill-rule="nonzero" fill-opacity="1" transform="matrix(1.00071 0 0 1 1830.46 873.049)"/><path d="M761.96 291.396 822.996 453.829 761.96 616.262Z" fill="#FFFFFF" fill-rule="evenodd" fill-opacity="1" transform="matrix(1.00071 0 0 1 1830.46 873.049)"/><path d="M1021.85 293.364 1080.92 455.798 1021.85 618.231Z" fill="#5C4D7D" fill-rule="evenodd" fill-opacity="1" transform="matrix(1.00071 0 0 1 1830.46 873.049)"/><text fill="#FFFFFF" fill-opacity="1" font-family="Metropolis Extra Light,Metropolis Extra Light_MSFontService,sans-serif" font-style="normal" font-variant="normal" font-weight="200" font-stretch="normal" font-size="12" text-anchor="start" direction="ltr" writing-mode="lr-tb" unicode-bidi="normal" text-decoration="none" transform="matrix(1.97028 0 0 1.96889 2673.5 1375)">Assign kmer<tspan fill="#FFFFFF" fill-opacity="1" font-family="Metropolis Extra Light,Metropolis Extra Light_MSFontService,sans-serif" font-style="normal" font-variant="normal" font-weight="200" font-stretch="normal" font-size="12" text-anchor="start" direction="ltr" writing-mode="lr-tb" unicode-bidi="normal" text-decoration="none" x="7.06506" y="15.237">frequency </tspan><tspan fill="#FFFFFF" fill-opacity="1" font-family="Metropolis Extra Light,Metropolis Extra Light_MSFontService,sans-serif" font-style="normal" font-variant="normal" font-weight="200" font-stretch="normal" font-size="12" text-anchor="start" direction="ltr" writing-mode="lr-tb" unicode-bidi="normal" text-decoration="none" x="-18.2499" y="28.9503">probability scores</tspan></text><g clip-path="url(#clip11)"><g clip-path="url(#clip12)"><g clip-path="url(#clip13)"><path d="M57.9676 13.4809 20.2213 13.4809C17.2432 13.4809 14.8289 15.8951 14.8289 18.8732L14.8289 56.6195C14.8289 59.5977 17.2432 62.0119 20.2213 62.0119L57.9676 62.0119C60.9458 62.0119 63.36 59.5977 63.36 56.6195L63.36 18.8732C63.36 15.8951 60.9458 13.4809 57.9676 13.4809ZM29.658 55.2714C27.4243 55.2714 25.6137 53.4608 25.6137 51.2273 25.6137 48.9936 27.4243 47.183 29.658 47.183 31.8915 47.183 33.7021 48.9936 33.7021 51.2273 33.7021 53.4608 31.8915 55.2714 29.658 55.2714ZM29.658 41.7906C27.4243 41.7906 25.6137 39.9801 25.6137 37.7464 25.6137 35.5129 27.4243 33.7021 29.658 33.7021 31.8915 33.7021 33.7021 35.5129 33.7021 37.7464 33.7021 39.9801 31.8915 41.7906 29.658 41.7906ZM29.658 28.3099C27.4243 28.3099 25.6137 26.4993 25.6137 24.2656 25.6137 22.0319 27.4243 20.2213 29.658 20.2213 31.8915 20.2213 33.7021 22.0319 33.7021 24.2656 33.7021 26.4993 31.8915 28.3099 29.658 28.3099ZM48.5311 55.2714C46.2974 55.2714 44.4868 53.4608 44.4868 51.2273 44.4868 48.9936 46.2974 47.183 48.5311 47.183 50.7646 47.183 52.5754 48.9936 52.5754 51.2273 52.5754 53.4608 50.7646 55.2714 48.5311 55.2714ZM48.5311 41.7906C46.2974 41.7906 44.4868 39.9801 44.4868 37.7464 44.4868 35.5129 46.2974 33.7021 48.5311 33.7021 50.7646 33.7021 52.5754 35.5129 52.5754 37.7464 52.5754 39.9801 50.7646 41.7906 48.5311 41.7906ZM48.5311 28.3099C46.2974 28.3099 44.4868 26.4993 44.4868 24.2656 44.4868 22.0319 46.2974 20.2213 48.5311 20.2213 50.7646 20.2213 52.5754 22.0319 52.5754 24.2656 52.5754 26.4993 50.7646 28.3099 48.5311 28.3099Z" fill="#FFFFFF" fill-rule="nonzero" fill-opacity="1" transform="matrix(1.0009 0 0 1 2701.83 1174.82)"/><path d="M112.74 79.7662 86.0483 53.0742C83.9438 50.9671 80.5293 50.9653 78.4222 53.07 78.421 53.0714 78.4197 53.0726 78.4181 53.0742L51.7261 79.7662C49.619 81.8709 49.6172 85.2852 51.7219 87.3923 51.7233 87.3937 51.7245 87.3948 51.7261 87.3964L78.4181 114.088C80.5228 116.196 83.9371 116.198 86.0442 114.093 86.0456 114.091 86.0467 114.09 86.0483 114.088L112.74 87.3964C114.847 85.2917 114.849 81.8774 112.745 79.7703 112.743 79.7691 112.742 79.7678 112.74 79.7662ZM82.2332 64.5193C83.8117 62.9391 86.3722 62.9375 87.9526 64.516 89.5331 66.0942 89.5346 68.655 87.9562 70.2352 86.3777 71.8156 83.8172 71.8172 82.2367 70.2387 82.2356 70.2377 82.2344 70.2366 82.2332 70.2352 80.6563 68.6563 80.6563 66.0984 82.2332 64.5193ZM68.8871 89.2972C67.3088 90.8776 64.7481 90.8792 63.1679 89.3007 61.5874 87.7223 61.5859 85.1617 63.1641 83.5813 64.7426 82.0009 67.3033 81.9993 68.8837 83.5778 68.8847 83.5789 68.8859 83.5801 68.8871 83.5813 70.4642 85.1603 70.4642 87.7181 68.8871 89.2972ZM72.7022 74.0503C74.2807 72.4701 76.8412 72.4683 78.4216 74.0468 80.0021 75.6252 80.0036 78.186 78.4254 79.7662 76.8467 81.3466 74.2862 81.3482 72.7057 79.7697 72.7048 79.7687 72.7034 79.7674 72.7022 79.7662 71.1253 78.1871 71.1253 75.6294 72.7022 74.0503ZM82.2332 102.643C80.6549 104.224 78.0942 104.225 76.5138 102.647 74.9335 101.068 74.9318 98.5076 76.5102 96.9274 78.0887 95.347 80.6494 95.3454 82.2297 96.9239 82.2308 96.9249 82.232 96.9262 82.2332 96.9274 83.8103 98.5065 83.8103 101.064 82.2332 102.643ZM91.7642 93.1123C90.1859 94.6927 87.6252 94.6943 86.0448 93.1158 84.4644 91.5374 84.4628 88.9768 86.0412 87.3964 87.6197 85.816 90.1804 85.8144 91.7607 87.3929 91.7618 87.3941 91.763 87.3952 91.7642 87.3964 93.3413 88.9755 93.3413 91.5332 91.7642 93.1123ZM101.295 83.5813C99.7167 85.1617 97.1562 85.1633 95.5758 83.5848 93.9953 82.0064 93.9938 79.4458 95.572 77.8654 97.1507 76.285 99.7112 76.2834 101.292 77.8619 101.293 77.8631 101.294 77.8642 101.295 77.8654 102.872 79.4445 102.872 82.0023 101.295 83.5813Z" fill="#FFFFFF" fill-rule="nonzero" fill-opacity="1" transform="matrix(1.0009 0 0 1 2701.83 1174.82)"/></g></g></g><path d="M838.747 303.209 939.16 303.209 939.16 364.244 838.747 364.244Z" fill="#5C4D7D" fill-rule="nonzero" fill-opacity="1" transform="matrix(1.00071 0 0 1 1830.46 873.049)"/><g clip-path="url(#clip14)"><g clip-path="url(#clip15)"><g clip-path="url(#clip16)"><path d="M57.1328 62.4648 19.9301 62.4648C16.2632 62.4597 13.2919 59.4882 13.2867 55.8213L13.2867 18.6014C13.2919 14.9345 16.2632 11.9631 19.9301 11.958L57.1328 11.958C60.7997 11.9631 63.7709 14.9345 63.7761 18.6014L63.7761 55.82C63.7717 59.4874 60.8003 62.4597 57.1328 62.4648ZM19.9301 14.6154C17.7286 14.6154 15.944 16.3999 15.944 18.6014L15.944 55.82C15.944 58.0216 17.7286 59.806 19.9301 59.806L57.1328 59.806C59.3342 59.806 61.1188 58.0216 61.1188 55.82L61.1188 18.6014C61.1188 16.3999 59.3342 14.6154 57.1328 14.6154Z" fill="#FFFFFF" fill-rule="nonzero" fill-opacity="1" transform="matrix(1.00816 0 0 1 2701.32 1174.29)"/><path d="M82.3775 116.693 82.3775 116.693C80.6142 116.698 78.9225 115.996 77.6807 114.744L51.373 88.4256C48.7822 85.8288 48.7822 81.6246 51.373 79.0279L77.6807 52.7203C78.9221 51.4673 80.6136 50.7635 82.3775 50.7658 84.1405 50.7611 85.8321 51.4626 87.0743 52.7137L113.382 79.032C115.973 81.6292 115.973 85.8337 113.382 88.4309L87.081 114.745C85.8367 115.997 84.1426 116.699 82.3775 116.693ZM53.2078 86.5057 53.2518 86.5508 79.5594 112.867C80.3047 113.617 81.3196 114.038 82.3775 114.036 83.435 114.039 84.4498 113.619 85.1956 112.869L111.503 86.5508C113.061 84.9952 113.062 82.4712 111.506 80.9138 111.505 80.9129 111.504 80.9117 111.503 80.9107L85.1956 54.5924C84.4502 53.842 83.4354 53.4209 82.3775 53.4232 81.3202 53.4201 80.3057 53.8395 79.5594 54.5884L53.2518 80.9079C51.7091 82.448 51.6894 84.9418 53.2078 86.5057Z" fill="#FFFFFF" fill-rule="nonzero" fill-opacity="1" transform="matrix(1.00816 0 0 1 2701.32 1174.29)"/><path d="M47.8322 53.8257C45.9976 53.8257 44.5105 52.3386 44.5105 50.504 44.5105 48.6696 45.9976 47.1825 47.8322 47.1825 49.6666 47.1825 51.1537 48.6696 51.1537 50.504 51.1537 52.3386 49.6666 53.8257 47.8322 53.8257Z" fill="#FFFFFF" fill-rule="nonzero" fill-opacity="1" transform="matrix(1.00816 0 0 1 2701.32 1174.29)"/><path d="M29.2307 53.8257C27.3963 53.8257 25.909 52.3386 25.909 50.504 25.909 48.6696 27.3963 47.1825 29.2307 47.1825 31.0651 47.1825 32.5524 48.6696 32.5524 50.504 32.5524 52.3386 31.0651 53.8257 29.2307 53.8257Z" fill="#FFFFFF" fill-rule="nonzero" fill-opacity="1" transform="matrix(1.00816 0 0 1 2701.32 1174.29)"/><path d="M51.1565 37.2134C51.1565 39.0478 49.6694 40.5351 47.8347 40.5351 46.0003 40.5351 44.513 39.0478 44.513 37.2134 44.513 35.379 46.0003 33.8917 47.8347 33.8917 49.6694 33.8917 51.1565 35.379 51.1565 37.2134Z" fill="#FFFFFF" fill-rule="nonzero" fill-opacity="1" transform="matrix(1.00816 0 0 1 2701.32 1174.29)"/><path d="M32.5538 37.2134C32.5538 39.0478 31.0665 40.5351 29.2321 40.5351 27.3975 40.5351 25.9104 39.0478 25.9104 37.2134 25.9104 35.379 27.3975 33.8917 29.2321 33.8917 31.0665 33.8917 32.5538 35.379 32.5538 37.2134Z" fill="#FFFFFF" fill-rule="nonzero" fill-opacity="1" transform="matrix(1.00816 0 0 1 2701.32 1174.29)"/><path d="M47.8322 27.2457C45.9976 27.2457 44.5105 25.7586 44.5105 23.924 44.5105 22.0896 45.9976 20.6023 47.8322 20.6023 49.6666 20.6023 51.1537 22.0896 51.1537 23.924 51.1537 25.7586 49.6666 27.2457 47.8322 27.2457Z" fill="#FFFFFF" fill-rule="nonzero" fill-opacity="1" transform="matrix(1.00816 0 0 1 2701.32 1174.29)"/><path d="M29.2307 27.2457C27.3963 27.2457 25.909 25.7586 25.909 23.924 25.909 22.0896 27.3963 20.6023 29.2307 20.6023 31.0651 20.6023 32.5524 22.0896 32.5524 23.924 32.5524 25.7586 31.0651 27.2457 29.2307 27.2457Z" fill="#FFFFFF" fill-rule="nonzero" fill-opacity="1" transform="matrix(1.00816 0 0 1 2701.32 1174.29)"/><path d="M79.5608 103.028C77.7262 103.028 76.2387 101.541 76.2383 99.7067 76.2379 97.8723 77.7248 96.3848 79.5593 96.3844 81.3939 96.384 82.8814 97.8709 82.8818 99.7053 82.882 100.585 82.5329 101.43 81.9111 102.052 81.2895 102.679 80.4431 103.03 79.5608 103.028Z" fill="#FFFFFF" fill-rule="nonzero" fill-opacity="1" transform="matrix(1.00816 0 0 1 2701.32 1174.29)"/><path d="M88.9544 93.6299C87.12 93.6295 85.6331 92.1422 85.6335 90.3076 85.6337 88.4732 87.1212 86.9863 88.9556 86.9867 90.7902 86.9871 92.2771 88.4746 92.2767 90.309 92.2765 91.1893 91.927 92.0333 91.3049 92.6561 90.6831 93.282 89.8367 93.6329 88.9544 93.6299Z" fill="#FFFFFF" fill-rule="nonzero" fill-opacity="1" transform="matrix(1.00816 0 0 1 2701.32 1174.29)"/><path d="M66.4055 89.8699C64.5711 89.868 63.0854 88.3793 63.0871 86.5449 63.0889 84.7105 64.5776 83.2247 66.412 83.2265 67.2897 83.2275 68.1314 83.5756 68.7534 84.1952 70.0529 85.4899 70.0568 87.5931 68.7621 88.8926 68.1379 89.5191 67.2897 89.8707 66.4055 89.8699Z" fill="#FFFFFF" fill-rule="nonzero" fill-opacity="1" transform="matrix(1.00816 0 0 1 2701.32 1174.29)"/><path d="M98.3482 84.2377C96.5135 84.2358 95.0278 82.7471 95.0298 80.9127 95.0316 79.0783 96.5201 77.5925 98.3547 77.5943 99.2324 77.5953 100.074 77.9434 100.696 78.563 101.996 79.8577 101.999 81.9609 100.705 83.2604 100.08 83.8869 99.2324 84.2385 98.3482 84.2377Z" fill="#FFFFFF" fill-rule="nonzero" fill-opacity="1" transform="matrix(1.00816 0 0 1 2701.32 1174.29)"/><path d="M75.806 80.4736C74.9255 80.476 74.081 80.1257 73.4608 79.501 72.1635 78.2039 72.1633 76.1007 73.4602 74.8034 74.7571 73.5059 76.8603 73.5057 78.1578 74.8028 79.4551 76.0997 79.4553 78.2029 78.1584 79.5002 77.5347 80.1241 76.6882 80.4744 75.806 80.4736Z" fill="#FFFFFF" fill-rule="nonzero" fill-opacity="1" transform="matrix(1.00816 0 0 1 2701.32 1174.29)"/><path d="M85.2009 71.0838C83.3665 71.0842 81.879 69.5973 81.8786 67.7629 81.8782 65.9282 83.3649 64.4409 85.1995 64.4406 87.0341 64.4402 88.5216 65.9271 88.522 67.7615 88.522 68.6414 88.173 69.4856 87.5514 70.1086 86.93 70.7351 86.0834 71.0865 85.2009 71.0838Z" fill="#FFFFFF" fill-rule="nonzero" fill-opacity="1" transform="matrix(1.00816 0 0 1 2701.32 1174.29)"/></g></g></g><text fill="#FFFFFF" fill-opacity="1" font-family="Metropolis,Metropolis_MSFontService,sans-serif" font-style="normal" font-variant="normal" font-weight="700" font-stretch="normal" font-size="16" text-anchor="start" direction="ltr" writing-mode="lr-tb" unicode-bidi="normal" text-decoration="none" transform="matrix(1.97028 0 0 1.96889 2691.48 1336)">SCORE</text><path d="M761.96 639.889 1025.79 639.889 1025.79 964.756 761.96 964.756Z" stroke="#FFFFFF" stroke-width="2.95333" stroke-linecap="butt" stroke-linejoin="miter" stroke-miterlimit="8" stroke-opacity="1" fill="#2E6F95" fill-rule="nonzero" fill-opacity="1" transform="matrix(1.00071 0 0 1 1830.46 873.049)"/><path d="M761.96 639.889 822.996 801.338 761.96 962.787Z" fill="#FFFFFF" fill-rule="evenodd" fill-opacity="1" transform="matrix(1.00071 0 0 1 1830.46 873.049)"/><path d="M1021.85 639.889 1082.89 802.322 1021.85 964.756Z" fill="#2E6F95" fill-rule="evenodd" fill-opacity="1" transform="matrix(1.00071 0 0 1 1830.46 873.049)"/><g clip-path="url(#clip17)"><g clip-path="url(#clip18)"><g clip-path="url(#clip19)"><path d="M965.309 700.924C970.944 700.952 975.533 696.408 975.561 690.773 975.588 685.138 971.044 680.548 965.409 680.521 959.774 680.493 955.185 685.037 955.157 690.672 955.153 691.552 955.262 692.431 955.484 693.281L937.549 700.456C935.504 696.223 931.408 693.352 926.732 692.872L926.732 673.75C932.289 673.004 936.187 667.892 935.439 662.336 934.691 656.778 929.581 652.88 924.023 653.628 918.467 654.376 914.569 659.485 915.317 665.043 915.927 669.576 919.491 673.141 924.023 673.75L924.023 692.872C919.347 693.35 915.254 696.221 913.206 700.452L895.272 693.277C896.66 687.845 893.379 682.316 887.947 680.93 882.515 679.542 876.986 682.822 875.598 688.255 874.212 693.687 877.492 699.215 882.925 700.604 887.355 701.734 891.995 699.763 894.258 695.79L912.275 702.996C911.147 707.319 912.253 711.921 915.226 715.258L900.682 729.798C896.057 726.605 889.719 727.762 886.524 732.387 883.33 737.012 884.49 743.35 889.113 746.544 893.738 749.739 900.076 748.579 903.271 743.955 905.876 740.182 905.638 735.132 902.686 731.621L917.205 717.103C922.027 720.798 928.729 720.798 933.551 717.103L948.069 731.621C944.454 735.921 945.01 742.336 949.31 745.951 953.608 749.564 960.022 749.011 963.637 744.711 967.252 740.412 966.697 733.996 962.399 730.383 958.89 727.434 953.844 727.193 950.074 729.798L935.529 715.258C938.498 711.921 939.605 707.321 938.477 703L956.494 695.794C958.298 698.963 961.662 700.922 965.309 700.924ZM885.447 698.217C881.334 698.217 878.002 694.884 878.002 690.773 878.002 686.66 881.334 683.327 885.447 683.327 889.558 683.327 892.891 686.66 892.891 690.773 892.887 694.882 889.556 698.213 885.447 698.217ZM917.933 663.701C917.933 659.588 921.267 656.254 925.378 656.254 929.489 656.254 932.822 659.588 932.822 663.701 932.822 667.812 929.489 671.145 925.378 671.145 921.269 671.141 917.937 667.81 917.933 663.701ZM894.921 745.595C890.81 745.595 887.477 742.261 887.477 738.148 887.477 734.037 890.81 730.704 894.921 730.704 899.034 730.704 902.365 734.037 902.365 738.148 902.361 742.259 899.032 745.589 894.921 745.595ZM963.279 738.148C963.279 742.261 959.946 745.595 955.835 745.595 951.721 745.595 948.39 742.261 948.39 738.148 948.39 734.037 951.721 730.704 955.835 730.704 959.944 730.708 963.275 734.039 963.279 738.148ZM925.378 717.168C919.396 717.168 914.549 712.32 914.549 706.339 914.549 700.357 919.396 695.51 925.378 695.51 931.359 695.51 936.207 700.357 936.207 706.339 936.201 712.316 931.355 717.162 925.378 717.168ZM965.309 683.327C969.422 683.327 972.753 686.66 972.753 690.773 972.753 694.884 969.422 698.217 965.309 698.217 961.198 698.217 957.864 694.884 957.864 690.773 957.868 686.662 961.2 683.332 965.309 683.327Z" fill="#FFFFFF" fill-rule="nonzero" fill-opacity="1" transform="matrix(1.00071 0 0 1 1830.46 873.049)"/></g></g></g><text fill="#FFFFFF" fill-opacity="1" font-family="Metropolis,Metropolis_MSFontService,sans-serif" font-style="normal" font-variant="normal" font-weight="700" font-stretch="normal" font-size="16" text-anchor="start" direction="ltr" writing-mode="lr-tb" unicode-bidi="normal" text-decoration="none" transform="matrix(1.97028 0 0 1.96889 2676.52 1668)">CLUSTER<tspan fill="#FFFFFF" fill-opacity="1" font-family="Metropolis Extra Light,Metropolis Extra Light_MSFontService,sans-serif" font-style="normal" font-variant="normal" font-weight="200" font-stretch="normal" font-size="12" text-anchor="start" direction="ltr" writing-mode="lr-tb" unicode-bidi="normal" text-decoration="none" x="-3.49988" y="25.395">Make clusters </tspan><tspan fill="#FFFFFF" fill-opacity="1" font-family="Metropolis Extra Light,Metropolis Extra Light_MSFontService,sans-serif" font-style="normal" font-variant="normal" font-weight="200" font-stretch="normal" font-size="12" text-anchor="start" direction="ltr" writing-mode="lr-tb" unicode-bidi="normal" text-decoration="none" x="-12.2499" y="40.1242">based on vector </tspan><tspan fill="#FFFFFF" fill-opacity="1" font-family="Metropolis Extra Light,Metropolis Extra Light_MSFontService,sans-serif" font-style="normal" font-variant="normal" font-weight="200" font-stretch="normal" font-size="12" text-anchor="start" direction="ltr" writing-mode="lr-tb" unicode-bidi="normal" text-decoration="none" x="5.87502" y="54.3454">correlation</tspan></text><path d="M431.187 295.333 724.551 295.333 724.551 964.756 431.187 964.756Z" stroke="#FFFFFF" stroke-width="2.95333" stroke-linecap="butt" stroke-linejoin="miter" stroke-miterlimit="8" stroke-opacity="1" fill="#892B64" fill-rule="nonzero" fill-opacity="1" transform="matrix(1.00071 0 0 1 1830.46 873.049)"/><path d="M722.582 295.333 783.618 460.72 722.582 626.107Z" fill="#892B64" fill-rule="evenodd" fill-opacity="1" transform="matrix(1.00071 0 0 1 1830.46 873.049)"/><path d="M722.582 630.044 783.618 795.431 722.582 960.818Z" fill="#892B64" fill-rule="evenodd" fill-opacity="1" transform="matrix(1.00071 0 0 1 1830.46 873.049)"/><path d="M431.187 287.458 490.253 626.107 431.187 964.756Z" fill="#FFFFFF" fill-rule="evenodd" fill-opacity="1" transform="matrix(1.00071 0 0 1 1830.46 873.049)"/><text fill="#FFFFFF" fill-opacity="1" font-family="Metropolis,Metropolis_MSFontService,sans-serif" font-style="normal" font-variant="normal" font-weight="700" font-stretch="normal" font-size="16" text-anchor="start" direction="ltr" writing-mode="lr-tb" unicode-bidi="normal" text-decoration="none" transform="matrix(1.97028 0 0 1.96889 2364.44 1436)">KMERIZE<tspan fill="#FFFFFF" fill-opacity="1" font-family="Metropolis Extra Light,Metropolis Extra Light_MSFontService,sans-serif" font-style="normal" font-variant="normal" font-weight="200" font-stretch="normal" font-size="12" text-anchor="start" direction="ltr" writing-mode="lr-tb" unicode-bidi="normal" text-decoration="none" x="-0.185124" y="56.8849">Apply amino </tspan><tspan fill="#FFFFFF" fill-opacity="1" font-family="Metropolis Extra Light,Metropolis Extra Light_MSFontService,sans-serif" font-style="normal" font-variant="normal" font-weight="200" font-stretch="normal" font-size="12" text-anchor="start" direction="ltr" writing-mode="lr-tb" unicode-bidi="normal" text-decoration="none" x="-3.50013" y="72.1219">acid recoding </tspan><tspan fill="#FFFFFF" fill-opacity="1" font-family="Metropolis Extra Light,Metropolis Extra Light_MSFontService,sans-serif" font-style="normal" font-variant="normal" font-weight="200" font-stretch="normal" font-size="12" text-anchor="start" direction="ltr" writing-mode="lr-tb" unicode-bidi="normal" text-decoration="none" x="5.62496" y="85.8352">(AAR) and </tspan><tspan fill="#FFFFFF" fill-opacity="1" font-family="Metropolis Extra Light,Metropolis Extra Light_MSFontService,sans-serif" font-style="normal" font-variant="normal" font-weight="200" font-stretch="normal" font-size="12" text-anchor="start" direction="ltr" writing-mode="lr-tb" unicode-bidi="normal" text-decoration="none" x="3.87496" y="101.072">build k</tspan><tspan fill="#FFFFFF" fill-opacity="1" font-family="Metropolis Extra Light,Metropolis Extra Light_MSFontService,sans-serif" font-style="normal" font-variant="normal" font-weight="200" font-stretch="normal" font-size="12" text-anchor="start" direction="ltr" writing-mode="lr-tb" unicode-bidi="normal" text-decoration="none" x="45.4999" y="101.072">-</tspan><tspan fill="#FFFFFF" fill-opacity="1" font-family="Metropolis Extra Light,Metropolis Extra Light_MSFontService,sans-serif" font-style="normal" font-variant="normal" font-weight="200" font-stretch="normal" font-size="12" text-anchor="start" direction="ltr" writing-mode="lr-tb" unicode-bidi="normal" text-decoration="none" x="50.9999" y="101.072">mer</tspan><tspan fill="#FFFFFF" fill-opacity="1" font-family="Metropolis Extra Light,Metropolis Extra Light_MSFontService,sans-serif" font-style="normal" font-variant="normal" font-weight="200" font-stretch="normal" font-size="12" text-anchor="start" direction="ltr" writing-mode="lr-tb" unicode-bidi="normal" text-decoration="none" x="7.31487" y="115.293">frequency </tspan><tspan fill="#FFFFFF" fill-opacity="1" font-family="Metropolis Extra Light,Metropolis Extra Light_MSFontService,sans-serif" font-style="normal" font-variant="normal" font-weight="200" font-stretch="normal" font-size="12" text-anchor="start" direction="ltr" writing-mode="lr-tb" unicode-bidi="normal" text-decoration="none" x="14.9399" y="129.007">vectors</tspan></text><g clip-path="url(#clip20)"><g clip-path="url(#clip21)"><g clip-path="url(#clip22)"><path d="M564.949 498.129 659.7 498.129C663.437 498.125 666.465 495.097 666.469 491.36L666.469 418.267C666.465 414.53 663.437 411.502 659.7 411.498L564.949 411.498C561.212 411.502 558.184 414.53 558.18 418.267L558.18 491.36C558.184 495.097 561.212 498.125 564.949 498.129ZM560.887 491.36 560.887 446.692 578.483 446.692 578.483 465.642 577.131 465.642C574.14 465.642 571.716 468.066 571.716 471.057 571.716 474.047 574.14 476.471 577.131 476.471L578.483 476.471 578.483 479.178 577.131 479.178C574.14 479.178 571.716 481.602 571.716 484.593 571.716 487.584 574.14 490.007 577.131 490.007L578.483 490.007 578.483 495.422 564.949 495.422C562.705 495.422 560.887 493.604 560.887 491.36ZM582.545 422.327C584.039 422.327 585.252 423.539 585.252 425.034 585.252 426.528 584.039 427.741 582.545 427.741L577.131 427.741C575.636 427.741 574.423 426.528 574.423 425.034 574.423 423.539 575.636 422.327 577.131 422.327ZM582.545 430.448C585.536 430.448 587.959 428.025 587.959 425.034 587.959 422.043 585.536 419.619 582.545 419.619L581.192 419.619 581.192 414.205 600.141 414.205 600.141 427.741 598.788 427.741C595.798 427.741 593.374 430.165 593.374 433.156 593.374 436.146 595.798 438.57 598.788 438.57L600.141 438.57 600.141 443.984 581.192 443.984 581.192 430.448ZM642.104 435.863C640.609 435.863 639.397 434.65 639.397 433.156 639.397 431.661 640.609 430.448 642.104 430.448L647.518 430.448C649.013 430.448 650.226 431.661 650.226 433.156 650.226 434.65 649.013 435.863 647.518 435.863ZM642.104 427.741C639.113 427.741 636.689 430.165 636.689 433.156 636.689 436.146 639.113 438.57 642.104 438.57L643.457 438.57 643.457 443.984 624.508 443.984 624.508 430.448 625.861 430.448C628.851 430.448 631.275 428.025 631.275 425.034 631.275 422.043 628.851 419.619 625.861 419.619L624.508 419.619 624.508 414.205 643.457 414.205 643.457 427.741ZM642.104 460.228C640.609 460.228 639.397 459.015 639.397 457.521 639.397 456.026 640.609 454.813 642.104 454.813L647.518 454.813C649.013 454.813 650.226 456.026 650.226 457.521 650.226 459.015 649.013 460.228 647.518 460.228ZM642.104 452.106C639.113 452.106 636.689 454.53 636.689 457.521 636.689 460.511 639.113 462.935 642.104 462.935L643.457 462.935 643.457 479.178 642.104 479.178C639.113 479.178 636.689 481.602 636.689 484.593 636.689 487.584 639.113 490.007 642.104 490.007L643.457 490.007 643.457 495.422 624.508 495.422 624.508 490.007 625.861 490.007C628.851 490.007 631.275 487.584 631.275 484.593 631.275 481.602 628.851 479.178 625.861 479.178L624.508 479.178 624.508 476.471 625.861 476.471C628.851 476.471 631.275 474.047 631.275 471.057 631.275 468.066 628.851 465.642 625.861 465.642L624.508 465.642 624.508 446.692 643.457 446.692 643.457 452.106ZM642.104 487.3C640.609 487.3 639.397 486.087 639.397 484.593 639.397 483.098 640.609 481.886 642.104 481.886L647.518 481.886C649.013 481.886 650.226 483.098 650.226 484.593 650.226 486.087 649.013 487.3 647.518 487.3ZM604.203 468.349C605.697 468.349 606.91 469.562 606.91 471.057 606.91 472.551 605.697 473.764 604.203 473.764L598.788 473.764C597.294 473.764 596.081 472.551 596.081 471.057 596.081 469.562 597.294 468.349 598.788 468.349ZM604.203 476.471C607.194 476.471 609.617 474.047 609.617 471.057 609.617 468.066 607.194 465.642 604.203 465.642L602.85 465.642 602.85 462.935 604.203 462.935C607.194 462.935 609.617 460.511 609.617 457.521 609.617 454.53 607.194 452.106 604.203 452.106L602.85 452.106 602.85 446.692 621.799 446.692 621.799 465.642 620.446 465.642C617.455 465.642 615.032 468.066 615.032 471.057 615.032 474.047 617.455 476.471 620.446 476.471L621.799 476.471 621.799 479.178 620.446 479.178C617.455 479.178 615.032 481.602 615.032 484.593 615.032 487.584 617.455 490.007 620.446 490.007L621.799 490.007 621.799 495.422 602.85 495.422 602.85 476.471ZM604.203 454.813C605.697 454.813 606.91 456.026 606.91 457.521 606.91 459.015 605.697 460.228 604.203 460.228L598.788 460.228C597.294 460.228 596.081 459.015 596.081 457.521 596.081 456.026 597.294 454.813 598.788 454.813ZM620.446 473.764C618.952 473.764 617.739 472.551 617.739 471.057 617.739 469.562 618.952 468.349 620.446 468.349L625.861 468.349C627.355 468.349 628.568 469.562 628.568 471.057 628.568 472.551 627.355 473.764 625.861 473.764ZM620.446 487.3C618.952 487.3 617.739 486.087 617.739 484.593 617.739 483.098 618.952 481.886 620.446 481.886L625.861 481.886C627.355 481.886 628.568 483.098 628.568 484.593 628.568 486.087 627.355 487.3 625.861 487.3ZM625.861 422.327C627.355 422.327 628.568 423.539 628.568 425.034 628.568 426.528 627.355 427.741 625.861 427.741L620.446 427.741C618.952 427.741 617.739 426.528 617.739 425.034 617.739 423.539 618.952 422.327 620.446 422.327ZM621.799 419.619 620.446 419.619C617.455 419.619 615.032 422.043 615.032 425.034 615.032 428.025 617.455 430.448 620.446 430.448L621.799 430.448 621.799 443.984 602.85 443.984 602.85 438.57 604.203 438.57C607.194 438.57 609.617 436.146 609.617 433.156 609.617 430.165 607.194 427.741 604.203 427.741L602.85 427.741 602.85 414.205 621.799 414.205ZM604.203 430.448C605.697 430.448 606.91 431.661 606.91 433.156 606.91 434.65 605.697 435.863 604.203 435.863L598.788 435.863C597.294 435.863 596.081 434.65 596.081 433.156 596.081 431.661 597.294 430.448 598.788 430.448ZM600.141 446.692 600.141 452.106 598.788 452.106C595.798 452.106 593.374 454.53 593.374 457.521 593.374 460.511 595.798 462.935 598.788 462.935L600.141 462.935 600.141 465.642 598.788 465.642C595.798 465.642 593.374 468.066 593.374 471.057 593.374 474.047 595.798 476.471 598.788 476.471L600.141 476.471 600.141 495.422 581.192 495.422 581.192 490.007 582.545 490.007C585.536 490.007 587.959 487.584 587.959 484.593 587.959 481.602 585.536 479.178 582.545 479.178L581.192 479.178 581.192 476.471 582.545 476.471C585.536 476.471 587.959 474.047 587.959 471.057 587.959 468.066 585.536 465.642 582.545 465.642L581.192 465.642 581.192 446.692ZM582.545 481.886C584.039 481.886 585.252 483.098 585.252 484.593 585.252 486.087 584.039 487.3 582.545 487.3L577.131 487.3C575.636 487.3 574.423 486.087 574.423 484.593 574.423 483.098 575.636 481.886 577.131 481.886ZM582.545 468.349C584.039 468.349 585.252 469.562 585.252 471.057 585.252 472.551 584.039 473.764 582.545 473.764L577.131 473.764C575.636 473.764 574.423 472.551 574.423 471.057 574.423 469.562 575.636 468.349 577.131 468.349ZM659.7 495.422 646.166 495.422 646.166 490.007 647.518 490.007C650.509 490.007 652.933 487.584 652.933 484.593 652.933 481.602 650.509 479.178 647.518 479.178L646.166 479.178 646.166 462.935 647.518 462.935C650.509 462.935 652.933 460.511 652.933 457.521 652.933 454.53 650.509 452.106 647.518 452.106L646.166 452.106 646.166 446.692 663.762 446.692 663.762 491.36C663.762 493.604 661.944 495.422 659.7 495.422ZM663.762 418.267 663.762 443.984 646.166 443.984 646.166 438.57 647.518 438.57C650.509 438.57 652.933 436.146 652.933 433.156 652.933 430.165 650.509 427.741 647.518 427.741L646.166 427.741 646.166 414.205 659.7 414.205C661.944 414.205 663.762 416.022 663.762 418.267ZM564.949 414.205 578.483 414.205 578.483 419.619 577.131 419.619C574.14 419.619 571.716 422.043 571.716 425.034 571.716 428.025 574.14 430.448 577.131 430.448L578.483 430.448 578.483 443.984 560.887 443.984 560.887 418.267C560.887 416.022 562.705 414.205 564.949 414.205Z" fill="#FFFFFF" fill-rule="nonzero" fill-opacity="1" transform="matrix(1.00071 0 0 1 1830.46 873.049)"/></g></g></g><path d="M743.256 629.06 1375.86 629.06" stroke="#7F7F7F" stroke-width="5.90667" stroke-linecap="butt" stroke-linejoin="miter" stroke-miterlimit="8" stroke-dasharray="5.90667 5.90667" stroke-opacity="1" fill="none" fill-rule="evenodd" transform="matrix(1.00071 0 0 1 1830.46 873.049)"/><path d="M98.4444 295.333 399.684 295.333 399.684 970.662 98.4444 970.662Z" stroke="#FFFFFF" stroke-width="2.95333" stroke-linecap="butt" stroke-linejoin="miter" stroke-miterlimit="8" stroke-opacity="1" fill="#B7094C" fill-rule="nonzero" fill-opacity="1" transform="matrix(1.00071 0 0 1 1830.46 873.049)"/><path d="M395.747 295.333 456.782 633.982 395.747 972.631Z" fill="#B7094C" fill-rule="evenodd" fill-opacity="1" transform="matrix(1.00071 0 0 1 1830.46 873.049)"/><path d="M98.4444 295.333 159.48 632.013 98.4444 968.693Z" fill="#FFFFFF" fill-rule="evenodd" fill-opacity="1" transform="matrix(1.00071 0 0 1 1830.46 873.049)"/><text fill="#FFFFFF" fill-opacity="1" font-family="Metropolis,Metropolis_MSFontService,sans-serif" font-style="normal" font-variant="normal" font-weight="700" font-stretch="normal" font-size="16" text-anchor="start" direction="ltr" writing-mode="lr-tb" unicode-bidi="normal" text-decoration="none" transform="matrix(1.97028 0 0 1.96889 2037.8 1438)">PROCESS<tspan fill="#FFFFFF" fill-opacity="1" font-family="Metropolis Extra Light,Metropolis Extra Light_MSFontService,sans-serif" font-style="normal" font-variant="normal" font-weight="200" font-stretch="normal" font-size="12" text-anchor="start" direction="ltr" writing-mode="lr-tb" unicode-bidi="normal" text-decoration="none" x="4.91179" y="52.3138">Detect input </tspan><tspan fill="#FFFFFF" fill-opacity="1" font-family="Metropolis Extra Light,Metropolis Extra Light_MSFontService,sans-serif" font-style="normal" font-variant="normal" font-weight="200" font-stretch="normal" font-size="12" text-anchor="start" direction="ltr" writing-mode="lr-tb" unicode-bidi="normal" text-decoration="none" x="-0.713235" y="67.0429">sequence files </tspan><tspan fill="#FFFFFF" fill-opacity="1" font-family="Metropolis Extra Light,Metropolis Extra Light_MSFontService,sans-serif" font-style="normal" font-variant="normal" font-weight="200" font-stretch="normal" font-size="12" text-anchor="start" direction="ltr" writing-mode="lr-tb" unicode-bidi="normal" text-decoration="none" x="0.161766" y="81.2641">and optionally </tspan><tspan fill="#FFFFFF" fill-opacity="1" font-family="Metropolis Extra Light,Metropolis Extra Light_MSFontService,sans-serif" font-style="normal" font-variant="normal" font-weight="200" font-stretch="normal" font-size="12" text-anchor="start" direction="ltr" writing-mode="lr-tb" unicode-bidi="normal" text-decoration="none" x="0.971776" y="95.9932">handle zipped </tspan><tspan fill="#FFFFFF" fill-opacity="1" font-family="Metropolis Extra Light,Metropolis Extra Light_MSFontService,sans-serif" font-style="normal" font-variant="normal" font-weight="200" font-stretch="normal" font-size="12" text-anchor="start" direction="ltr" writing-mode="lr-tb" unicode-bidi="normal" text-decoration="none" x="31.9718" y="110.214">files</tspan></text><g clip-path="url(#clip23)"><g clip-path="url(#clip24)"><g clip-path="url(#clip25)"><path d="M47.102 26.1677 71.1764 26.1677 71.1764 28.2613 47.102 28.2613Z" fill="#FFFFFF" fill-rule="nonzero" fill-opacity="1" transform="matrix(1 0 0 1.01889 2059.01 1276.67)"/><path d="M47.102 41.8685 71.1764 41.8685 71.1764 43.9619 47.102 43.9619Z" fill="#FFFFFF" fill-rule="nonzero" fill-opacity="1" transform="matrix(1 0 0 1.01889 2059.01 1276.67)"/><path d="M47.102 57.5693 71.1764 57.5693 71.1764 59.6625 47.102 59.6625Z" fill="#FFFFFF" fill-rule="nonzero" fill-opacity="1" transform="matrix(1 0 0 1.01889 2059.01 1276.67)"/><path d="M47.102 73.2699 71.1764 73.2699 71.1764 75.3633 47.102 75.3633Z" fill="#FFFFFF" fill-rule="nonzero" fill-opacity="1" transform="matrix(1 0 0 1.01889 2059.01 1276.67)"/><path d="M18.8408 92.1107 81.6436 92.1107 81.6436 8.3737 18.8408 8.3737ZM20.9342 10.4671 79.5501 10.4671 79.5501 90.0173 20.9342 90.0173Z" fill="#FFFFFF" fill-rule="nonzero" fill-opacity="1" transform="matrix(1 0 0 1.01889 2059.01 1276.67)"/><path d="M29.3079 31.9247 38.7283 31.9247 38.7283 22.5044 29.3079 22.5044ZM31.4014 24.5978 36.635 24.5978 36.635 29.8313 31.4014 29.8313Z" fill="#FFFFFF" fill-rule="nonzero" fill-opacity="1" transform="matrix(1 0 0 1.01889 2059.01 1276.67)"/><path d="M29.3079 47.6255 38.7283 47.6255 38.7283 38.205 29.3079 38.205ZM31.4014 40.2984 36.635 40.2984 36.635 45.532 31.4014 45.532Z" fill="#FFFFFF" fill-rule="nonzero" fill-opacity="1" transform="matrix(1 0 0 1.01889 2059.01 1276.67)"/><path d="M29.3079 63.3261 38.7283 63.3261 38.7283 53.9057 29.3079 53.9057ZM31.4014 55.9992 36.635 55.9992 36.635 61.2326 31.4014 61.2326Z" fill="#FFFFFF" fill-rule="nonzero" fill-opacity="1" transform="matrix(1 0 0 1.01889 2059.01 1276.67)"/><path d="M29.3079 79.0268 38.7283 79.0268 38.7283 69.6063 29.3079 69.6063ZM31.4014 71.6998 36.635 71.6998 36.635 76.9334 31.4014 76.9334Z" fill="#FFFFFF" fill-rule="nonzero" fill-opacity="1" transform="matrix(1 0 0 1.01889 2059.01 1276.67)"/></g></g></g></g></g></g></g></g></svg>