<svg width="527" height="463" xmlns="http://www.w3.org/2000/svg" xmlns:xlink="http://www.w3.org/1999/xlink" xml:space="preserve" overflow="hidden"><defs><clipPath id="clip0"><rect x="1668" y="1269" width="527" height="463"/></clipPath><clipPath id="clip1"><rect x="1788" y="1270" width="297" height="298"/></clipPath><clipPath id="clip2"><rect x="1788" y="1270" width="297" height="298"/></clipPath><clipPath id="clip3"><rect x="1788" y="1270" width="297" height="298"/></clipPath></defs><g clip-path="url(#clip0)" transform="translate(-1668 -1269)"><text fill="#FFFFFF" fill-opacity="1" font-family="DejaVu Sans Mono,DejaVu Sans Mono_MSFontService,sans-serif" font-style="normal" font-variant="normal" font-weight="400" font-stretch="normal" font-size="46" text-anchor="start" direction="ltr" writing-mode="lr-tb" unicode-bidi="normal" text-decoration="none" transform="matrix(1 0 0 1 1793.88 1331)">ACDEFGHIKL<tspan fill="#E7E6E6" fill-opacity="1" font-family="DejaVu Sans Mono,DejaVu Sans Mono_MSFontService,sans-serif" font-style="normal" font-variant="normal" font-weight="400" font-stretch="normal" font-size="46" text-anchor="start" direction="ltr" writing-mode="lr-tb" unicode-bidi="normal" text-decoration="none" x="0" y="55">MNPQRSTVWY</tspan><tspan fill="#D0CECE" fill-opacity="1" font-family="DejaVu Sans Mono,DejaVu Sans Mono_MSFontService,sans-serif" font-style="normal" font-variant="normal" font-weight="400" font-stretch="normal" font-size="46" text-anchor="start" direction="ltr" writing-mode="lr-tb" unicode-bidi="normal" text-decoration="none" x="0" y="110">ACDEFGHIKL</tspan><tspan fill="#AFABAB" fill-opacity="1" font-family="DejaVu Sans Mono,DejaVu Sans Mono_MSFontService,sans-serif" font-style="normal" font-variant="normal" font-weight="400" font-stretch="normal" font-size="46" text-anchor="start" direction="ltr" writing-mode="lr-tb" unicode-bidi="normal" text-decoration="none" x="0" y="165">MNPQRSTVWY</tspan></text><g clip-path="url(#clip1)"><g clip-path="url(#clip2)"><g clip-path="url(#clip3)"><path d="M194.25 40.0833 202.267 40.0833 210.592 48.4083 214.908 44.0917 206.583 35.7667 206.583 27.75C206.583 25.9 205.35 24.6667 203.5 24.6667 201.65 24.6667 200.417 25.9 200.417 27.75L200.417 33.9167 194.25 33.9167C192.4 33.9167 191.167 35.15 191.167 37 191.167 38.85 192.4 40.0833 194.25 40.0833Z" fill="#FFFFFF" fill-rule="nonzero" fill-opacity="1" transform="matrix(-1 0 0 -1 2085 1567)"/><path d="M271.025 104.217C278.733 92.1917 275.342 75.85 263.317 68.1417L231.867 48.1C228.783 45.9417 224.467 45.325 220.767 46.5583 213.983 48.7167 210.283 56.1167 212.442 63.2083L224.158 98.6667C226.008 104.217 229.708 108.842 234.642 112.233 240.808 116.242 247.592 117.167 254.067 115.933 253.758 131.35 248.825 150.467 230.942 157.558 205.042 167.733 203.808 138.442 184.692 98.975 165.575 59.5083 94.6583 71.5333 79.8583 105.142 63.825 141.525 84.4833 163.108 92.1917 172.975 99.9 182.842 131.35 202.267 138.442 213.058 145.533 223.85 131.967 243.275 110.692 209.975 89.4167 176.675 72.15 164.033 55.5 169.583 38.85 175.133 35.4583 194.25 43.1667 215.833 50.875 237.417 79.8583 251.908 70.9167 259 65.9833 263.008 41.0083 262.083 27.75 259 24.3583 258.075 22.5083 263.008 25.5917 264.55 42.55 274.417 79.8583 283.667 89.4167 264.858 101.75 241.117 75.5417 236.492 64.75 209.358 53.9583 182.225 75.2333 201.033 83.25 212.442 91.2667 223.85 106.067 251.292 126.417 258.692 146.767 266.092 171.433 243.275 172.975 217.067 174.517 190.858 150.158 181.3 135.667 169.583 121.175 157.867 101.442 130.733 126.417 117.167 151.392 103.6 166.192 145.533 172.667 160.333 179.142 175.133 194.25 185.925 212.75 188.083 231.25 190.242 251.908 181.3 265.167 157.25 274.108 141.217 271.95 121.483 268.25 107.608 269.175 106.683 270.1 105.45 271.025 104.217Z" fill="#FFFFFF" fill-rule="nonzero" fill-opacity="1" transform="matrix(-1 0 0 -1 2085 1567)"/></g></g></g><text fill="#FFFFFF" fill-opacity="1" font-family="Helvetica Neue,Helvetica Neue_MSFontService,sans-serif" font-style="normal" font-variant="normal" font-weight="700" font-stretch="condensed" font-size="110" text-anchor="start" direction="ltr" writing-mode="lr-tb" unicode-bidi="normal" text-decoration="none" transform="matrix(1 0 0 1 1736.03 1641)">Snekmer</text></g></svg>